{"glyphs":{"0":{"ha":642,"x_min":42,"x_max":600,"o":"m 42 371 q 113 660 42 564 q 322 757 185 757 q 529 659 458 757 q 600 371 600 561 q 321 -12 600 -12 q 42 371 42 -12 m 322 725 q 277 725 322 725 q 199 647 233 725 q 164 370 164 569 q 199 97 164 171 q 322 24 233 24 q 444 99 410 24 q 479 374 479 174 q 444 650 479 575 q 322 725 410 725 z "},"1":{"ha":456,"x_min":85,"x_max":392,"o":"m 85 640 q 283 771 189 671 l 304 771 l 304 56 q 325 31 304 31 l 392 32 l 392 0 l 104 0 l 104 32 l 172 31 q 194 56 194 31 l 194 617 q 188 635 194 629 q 172 636 182 642 l 96 599 l 85 640 z "},"2":{"ha":639,"x_min":72,"x_max":557,"o":"m 506 0 l 72 0 q 217 235 96 101 q 314 343 265 289 q 425 567 425 469 q 389 686 425 644 q 301 728 353 728 q 223 705 250 728 q 196 647 196 682 q 203 615 196 635 q 211 578 211 594 q 193 547 211 563 q 150 531 175 531 q 106 551 125 531 q 88 606 88 571 q 142 712 88 664 q 305 760 197 760 q 479 710 413 760 q 546 567 546 661 q 394 328 546 454 l 310 253 q 160 90 203 158 l 393 90 q 521 213 521 90 l 557 213 q 547 54 547 97 q 547 -3 547 11 q 506 0 525 0 z "},"3":{"ha":611,"x_min":42,"x_max":561,"o":"m 176 636 l 179 604 q 160 567 179 582 q 117 553 142 553 q 74 573 92 553 q 57 625 57 593 q 122 726 57 690 q 286 763 186 763 q 452 718 386 763 q 518 601 518 674 q 441 467 518 528 q 261 397 364 406 q 561 203 561 397 q 482 50 561 113 q 287 -12 403 -12 q 106 26 171 -12 q 42 129 42 64 q 59 184 42 161 q 103 207 76 207 q 148 193 131 207 q 165 156 165 179 l 160 118 q 196 50 160 76 q 293 24 232 24 q 398 77 354 24 q 442 206 442 131 q 381 324 442 282 q 192 379 321 367 l 192 411 q 335 469 272 411 q 397 607 397 526 q 367 695 397 661 q 285 729 336 729 q 205 704 233 729 q 176 636 176 679 z "},"4":{"ha":613,"x_min":18,"x_max":549,"o":"m 346 192 l 18 192 l 18 269 q 54 307 38 286 l 89 346 l 369 693 l 414 756 l 456 756 l 456 281 l 549 281 l 549 192 l 456 192 l 456 56 q 478 31 456 31 l 531 32 l 531 0 l 243 0 l 243 32 l 324 31 q 346 56 346 31 l 346 192 m 346 604 l 86 281 l 346 281 l 346 604 z "},"5":{"ha":611,"x_min":58,"x_max":549,"o":"m 181 -2 q 158 3 181 -2 q 97 42 135 8 q 58 119 58 75 q 76 184 58 164 q 121 204 94 204 q 179 156 179 204 q 174 128 179 142 q 168 107 168 114 q 202 44 168 65 q 282 22 236 22 q 396 76 363 22 q 429 229 429 131 q 387 379 429 328 q 263 431 344 431 q 179 410 221 431 q 119 361 138 390 q 117 360 118 360 l 97 360 q 90 361 92 360 l 117 746 l 428 746 q 524 750 478 746 q 474 575 486 672 l 438 575 q 440 613 440 594 q 430 643 440 631 q 400 656 419 656 l 154 656 l 133 418 q 313 476 208 476 q 483 414 417 476 q 549 237 549 351 q 472 55 549 122 q 282 -12 396 -12 q 181 -2 226 -12 z "},"6":{"ha":597,"x_min":58,"x_max":542,"o":"m 389 624 l 396 668 q 378 708 396 690 q 329 725 360 725 q 222 645 258 725 q 179 436 185 565 q 304 500 222 500 q 479 433 417 500 q 542 249 542 365 q 475 59 542 132 q 304 -14 408 -14 q 107 89 161 -14 q 58 326 58 179 q 346 763 58 763 q 467 731 425 763 q 508 642 508 700 q 491 594 508 611 q 446 576 474 576 q 389 624 389 576 m 176 235 q 176 192 176 235 q 209 82 176 149 q 305 15 242 15 q 395 71 368 15 q 422 243 422 126 q 304 469 422 469 q 188 372 208 469 q 176 235 176 321 z "},"7":{"ha":524,"x_min":32,"x_max":547,"o":"m 75 539 l 32 539 q 60 750 60 694 q 203 746 75 746 l 547 746 q 365 442 435 628 q 294 90 294 257 q 296 47 294 63 l 299 0 l 188 0 q 176 101 176 51 q 436 656 176 354 l 203 656 q 112 629 142 656 q 75 539 82 603 z "},"8":{"ha":611,"x_min":51,"x_max":558,"o":"m 51 175 q 98 289 51 233 q 219 382 144 344 q 114 469 149 425 q 79 569 79 514 q 147 711 79 660 q 316 763 215 763 q 478 720 417 763 q 539 596 539 678 q 486 484 539 546 q 381 413 433 422 q 558 193 558 324 q 480 45 558 103 q 300 -12 401 -12 q 51 175 51 -12 m 253 361 q 177 278 210 335 q 144 166 144 222 q 186 66 144 110 q 294 22 228 22 q 398 56 360 22 q 436 147 436 90 q 318 321 436 251 l 253 361 m 326 728 q 297 728 326 728 q 233 695 268 728 q 199 615 199 663 q 238 519 199 567 q 351 432 276 471 q 449 599 449 488 q 417 694 449 661 q 326 728 385 728 z "},"9":{"ha":597,"x_min":56,"x_max":539,"o":"m 208 125 l 201 81 q 219 41 201 58 q 268 24 238 24 q 376 103 339 24 q 418 313 413 183 q 293 249 375 249 q 118 316 181 249 q 56 500 56 383 q 122 690 56 617 q 293 763 189 763 q 490 661 436 763 q 539 422 539 569 q 251 -14 539 -14 q 131 17 172 -14 q 89 107 89 49 q 106 155 89 138 q 151 172 124 172 q 208 125 208 172 m 175 506 q 293 279 175 279 q 410 375 389 279 q 421 514 421 428 q 388 667 421 600 q 292 733 356 733 q 202 678 229 733 q 175 506 175 622 z "}," ":{"ha":306,"x_min":0,"x_max":0,"o":""},"!":{"ha":374,"x_min":125,"x_max":304,"o":"m 152 10 q 139 22 152 10 q 125 67 125 33 q 151 123 125 100 q 215 146 178 146 q 278 122 253 146 q 304 66 304 99 q 277 10 304 33 q 215 -14 250 -14 q 152 10 179 -14 m 146 817 q 215 885 146 885 q 283 817 283 885 q 275 722 283 778 l 257 594 q 231 301 231 404 q 215 279 231 279 q 199 301 199 279 q 172 594 199 404 l 154 722 q 146 817 146 778 z "},"\"":{"ha":350,"x_min":47,"x_max":303,"o":"m 75 592 l 47 833 q 93 889 47 889 q 139 833 139 889 l 111 592 q 93 568 111 568 q 75 592 75 568 m 239 592 l 211 833 q 257 889 211 889 q 303 833 303 889 l 275 592 q 257 568 275 568 q 239 592 239 568 z "},"#":{"ha":701,"x_min":25,"x_max":676,"o":"m 163 269 l 25 269 l 40 325 l 178 325 l 250 563 l 111 563 l 126 618 l 265 618 l 347 888 l 403 888 l 321 618 l 479 618 l 561 888 l 617 888 l 536 618 l 676 618 l 661 563 l 519 563 l 449 325 l 589 325 l 572 269 l 432 269 l 347 -12 l 292 -12 l 376 269 l 218 269 l 133 -12 l 78 -12 l 163 269 m 306 563 l 233 325 l 393 325 l 464 563 l 306 563 z "},"$":{"ha":647,"x_min":121,"x_max":493,"o":"m 121 188 l 121 335 l 147 336 q 205 235 158 274 q 306 196 251 196 q 385 219 361 196 q 410 277 410 242 q 392 332 410 313 q 332 363 375 351 l 221 393 q 148 438 175 404 q 121 524 121 472 q 166 614 121 576 q 286 654 211 651 l 286 899 l 338 899 l 338 649 q 383 638 349 647 q 434 629 418 629 q 465 639 450 629 l 458 513 l 433 513 q 396 590 433 557 q 297 624 358 624 q 204 547 204 624 q 276 472 204 490 l 389 442 q 493 317 493 414 q 451 213 493 251 q 338 167 410 174 l 338 -132 l 286 -132 l 286 167 q 213 182 258 169 q 149 194 167 194 q 121 188 132 194 z "},"%":{"ha":761,"x_min":0,"x_max":761,"o":"m 50 -107 l 0 -72 l 710 925 l 761 894 l 50 -107 m 210 550 q 171 550 210 550 q 87 601 132 550 q 42 748 42 653 q 88 894 42 843 q 212 944 135 944 q 335 893 289 944 q 382 747 382 842 q 335 601 382 651 q 210 550 289 550 m 212 919 q 171 919 212 919 q 131 748 131 919 q 212 576 131 576 q 293 748 293 576 q 212 919 293 919 m 585 -94 q 546 -94 585 -94 q 462 -43 507 -94 q 417 103 417 8 q 463 249 417 199 q 587 300 510 300 q 710 249 664 300 q 757 102 757 197 q 710 -44 757 7 q 585 -94 664 -94 m 587 275 q 546 275 587 275 q 506 103 506 275 q 587 -68 506 -68 q 668 103 668 -68 q 587 275 668 275 z "},"&":{"ha":847,"x_min":31,"x_max":868,"o":"m 31 226 q 146 453 31 371 l 247 525 q 183 678 183 607 q 236 796 183 750 q 364 842 289 842 q 536 699 536 842 q 520 631 536 664 q 478 582 504 597 l 399 532 l 594 265 q 640 485 640 376 q 621 517 640 517 l 557 514 l 557 554 l 767 554 l 767 514 l 703 517 q 685 486 685 517 q 624 224 685 354 l 749 54 q 790 36 763 36 l 868 39 l 868 0 l 636 0 l 553 113 q 451 19 508 53 q 292 -14 394 -14 q 110 51 189 -14 q 31 226 31 115 m 253 467 q 180 369 206 432 q 154 228 154 307 q 207 90 154 150 q 339 29 260 29 q 528 146 444 29 l 276 486 l 253 467 m 371 803 q 354 803 371 803 q 314 777 338 803 q 290 714 290 751 q 317 640 290 676 l 369 571 l 431 621 q 458 696 458 649 q 431 773 458 743 q 371 803 404 803 z "},"'":{"ha":185,"x_min":47,"x_max":139,"o":"m 75 592 l 47 833 q 93 889 47 889 q 139 833 139 889 l 111 592 q 93 568 111 568 q 75 592 75 568 z "},"(":{"ha":353,"x_min":25,"x_max":353,"o":"m 293 -321 q 25 333 25 -4 q 293 988 25 671 l 353 988 q 210 681 264 875 q 156 333 156 486 q 210 -14 156 181 q 353 -321 264 -208 l 293 -321 z "},")":{"ha":353,"x_min":0,"x_max":328,"o":"m 60 -321 l 0 -321 q 143 -14 89 -208 q 197 333 197 181 q 143 681 197 486 q 0 988 89 875 l 60 988 q 328 333 328 671 q 60 -321 328 -4 z "},"*":{"ha":469,"x_min":28,"x_max":442,"o":"m 196 563 l 204 532 q 190 503 204 514 q 162 492 176 492 q 123 510 147 492 q 99 547 99 528 q 110 575 99 565 q 132 586 121 585 q 172 615 157 588 q 188 657 188 642 q 142 664 171 664 q 101 647 114 664 q 67 631 88 631 q 38 642 47 631 q 28 683 28 653 q 38 725 28 714 q 67 736 47 736 q 101 719 88 736 q 142 703 114 703 q 188 710 171 703 q 174 749 188 725 q 144 779 161 772 q 131 783 140 781 q 99 824 99 789 q 122 858 99 840 q 160 875 144 875 q 190 864 176 875 q 204 835 204 853 l 196 804 q 209 769 196 792 q 235 738 222 746 q 260 769 249 746 q 272 804 272 792 l 265 835 q 279 864 265 853 q 308 875 293 875 q 347 856 322 875 q 371 825 371 838 q 353 786 371 796 q 339 783 349 785 q 298 754 313 781 q 281 710 283 728 q 326 703 297 703 q 369 719 356 703 q 402 736 382 736 q 432 725 422 736 q 442 683 442 714 q 432 642 442 653 q 402 631 422 631 q 369 647 382 631 q 326 664 356 664 q 281 657 297 664 q 295 618 281 642 q 318 590 310 594 q 336 585 326 586 q 371 542 371 579 q 347 510 371 529 q 308 492 324 492 q 279 503 293 492 q 265 532 265 514 l 272 563 q 260 598 272 575 q 235 629 247 621 q 208 597 219 618 q 196 563 196 575 z "},"+":{"ha":639,"x_min":28,"x_max":611,"o":"m 286 360 l 28 360 l 28 421 l 286 421 l 286 678 l 354 678 l 354 421 l 611 421 l 611 360 l 354 360 l 354 101 l 286 101 l 286 360 z "},",":{"ha":347,"x_min":83,"x_max":263,"o":"m 110 -222 l 83 -207 q 149 -126 119 -174 q 179 -47 179 -79 q 129 -7 179 -7 q 85 53 85 -7 q 109 104 85 82 q 165 126 133 126 q 263 11 263 126 q 215 -120 263 -58 q 110 -222 168 -182 z "},"-":{"ha":346,"x_min":31,"x_max":317,"o":"m 317 263 l 31 263 l 31 339 l 317 339 l 317 263 z "},".":{"ha":347,"x_min":83,"x_max":264,"o":"m 109 8 q 96 18 109 8 q 83 65 83 29 q 109 124 83 101 q 174 146 135 146 q 238 124 213 146 q 264 65 264 101 q 238 8 264 29 q 174 -14 213 -14 q 109 8 135 -14 z "},"/":{"ha":343,"x_min":-7,"x_max":350,"o":"m 47 -7 l -7 8 l 297 882 l 350 869 l 47 -7 z "},":":{"ha":347,"x_min":83,"x_max":264,"o":"m 109 8 q 96 18 109 8 q 83 65 83 29 q 109 124 83 101 q 174 146 135 146 q 238 124 213 146 q 264 65 264 101 q 238 8 264 29 q 174 -14 213 -14 q 109 8 135 -14 m 109 422 q 96 432 109 422 q 83 479 83 443 q 109 538 83 515 q 174 560 135 560 q 238 538 213 560 q 264 479 264 515 q 238 422 264 443 q 174 400 213 400 q 109 422 135 400 z "},";":{"ha":347,"x_min":68,"x_max":279,"o":"m 94 422 q 81 432 94 422 q 68 479 68 443 q 94 538 68 515 q 158 560 119 560 q 223 538 197 560 q 249 479 249 515 q 223 422 249 443 q 158 400 197 400 q 94 422 119 400 m 126 -222 l 100 -207 q 166 -126 136 -174 q 196 -47 196 -79 q 146 -7 196 -7 q 101 53 101 -7 q 126 104 101 82 q 182 126 150 126 q 279 11 279 126 q 232 -120 279 -58 q 126 -222 185 -182 z "},"<":{"ha":639,"x_min":75,"x_max":564,"o":"m 564 -7 l 75 286 l 75 319 l 564 614 l 564 547 l 207 332 l 147 304 l 207 275 l 564 61 l 564 -7 z "},"=":{"ha":639,"x_min":49,"x_max":590,"o":"m 590 143 l 49 143 l 49 203 l 590 203 l 590 143 m 590 419 l 49 419 l 49 479 l 590 479 l 590 419 z "},">":{"ha":639,"x_min":75,"x_max":564,"o":"m 564 288 l 75 -7 l 75 60 l 431 275 l 490 303 l 431 332 l 75 546 l 75 614 l 564 321 l 564 288 z "},"?":{"ha":556,"x_min":50,"x_max":524,"o":"m 50 842 q 121 901 50 872 q 295 931 192 931 q 461 888 399 931 q 524 764 524 844 q 484 673 524 719 q 397 594 444 626 q 310 519 350 561 q 271 439 271 476 q 336 331 271 368 l 319 304 q 223 360 276 314 q 169 447 169 407 q 206 536 169 488 q 283 622 242 585 q 399 781 399 726 q 370 867 399 836 q 290 899 342 899 q 157 824 157 899 q 145 800 157 813 q 113 788 133 788 q 71 803 92 788 q 50 842 50 819 m 270 -14 q 252 -14 270 -14 q 206 6 235 -14 q 178 62 178 26 q 204 122 178 97 q 268 146 231 146 q 332 125 306 146 q 358 67 358 104 q 332 8 358 31 q 270 -14 306 -14 z "},"@":{"ha":1029,"x_min":36,"x_max":992,"o":"m 36 247 q 106 529 36 396 q 304 745 176 663 q 595 828 432 828 q 875 712 758 828 q 992 425 992 596 q 935 222 992 321 q 786 54 879 122 q 638 -14 693 -14 q 604 52 604 -14 q 638 260 604 118 q 496 48 558 110 q 369 -14 433 -14 q 272 31 306 -14 q 239 165 239 76 q 290 355 239 253 q 428 527 340 457 q 610 597 515 597 q 689 543 663 597 l 696 571 l 824 594 l 792 458 q 733 128 733 193 q 751 104 733 104 q 820 145 776 104 q 893 229 864 186 q 949 424 949 318 q 843 681 949 574 q 590 788 738 788 q 332 708 442 788 q 168 496 222 629 q 114 240 114 363 q 228 -51 114 60 q 535 -161 342 -161 q 753 -120 658 -161 q 939 13 849 -79 l 964 -18 q 764 -159 868 -117 q 522 -201 660 -201 q 168 -81 300 -201 q 36 247 36 40 m 363 171 q 432 63 363 63 q 517 132 460 63 q 624 304 575 201 q 672 483 672 407 q 655 534 672 513 q 613 556 638 556 q 489 496 546 556 q 397 341 432 436 q 363 171 363 246 z "},"A":{"ha":835,"x_min":-28,"x_max":863,"o":"m 569 38 q 606 75 606 38 q 590 125 606 99 l 522 289 l 200 289 l 135 133 q 122 42 106 58 q 146 36 129 35 l 213 40 l 213 0 l -28 0 l -28 40 l 8 38 l 14 38 q 61 66 42 38 q 101 144 81 94 l 392 843 l 428 843 l 721 142 q 760 65 740 92 q 810 38 781 38 l 817 38 l 863 40 l 863 0 l 494 0 l 494 40 l 563 38 q 569 38 565 38 m 360 678 l 214 328 l 508 328 l 360 678 z "},"B":{"ha":796,"x_min":69,"x_max":740,"o":"m 433 0 l 69 0 l 69 40 l 139 38 q 164 68 164 38 l 164 763 q 158 781 164 772 q 140 790 151 790 l 69 788 l 69 829 l 454 829 q 694 631 694 829 q 642 506 694 557 q 503 440 590 456 q 672 378 603 440 q 740 225 740 317 q 433 0 740 0 m 293 415 l 293 57 q 313 39 293 39 l 410 39 q 552 89 499 39 q 606 225 606 139 q 436 415 606 415 l 293 415 m 293 774 l 293 454 l 399 454 q 563 629 563 454 q 517 747 563 704 q 390 790 472 790 l 310 790 q 293 774 294 790 z "},"C":{"ha":843,"x_min":63,"x_max":781,"o":"m 472 -14 q 172 99 282 -14 q 63 413 63 213 q 173 728 63 614 q 479 843 283 843 q 574 835 539 843 q 703 792 610 828 q 768 783 728 783 q 763 698 763 732 q 764 650 764 664 l 764 631 q 768 601 764 606 l 735 601 q 640 748 715 688 q 472 808 565 808 q 276 699 349 808 q 204 414 204 590 q 280 131 204 238 q 479 24 356 24 q 649 83 575 24 q 742 232 722 142 l 781 232 l 778 203 l 775 169 q 772 99 772 125 q 776 49 772 74 l 768 49 q 672 28 735 49 l 621 11 l 569 -3 q 472 -14 510 -14 z "},"D":{"ha":865,"x_min":69,"x_max":817,"o":"m 399 0 l 69 0 l 69 40 l 129 38 q 150 68 150 38 l 150 761 q 124 790 150 790 l 69 788 l 69 829 l 382 829 q 710 733 604 829 q 817 415 817 636 q 399 0 817 0 m 279 772 l 279 57 q 296 39 279 39 l 358 39 q 603 124 531 39 q 675 414 675 210 q 603 704 675 618 q 358 790 531 790 l 296 790 q 279 772 279 790 z "},"E":{"ha":782,"x_min":69,"x_max":721,"o":"m 599 0 l 69 0 l 69 42 l 125 38 q 150 68 150 38 l 150 761 q 142 783 150 774 q 122 790 135 792 l 69 788 l 69 829 l 656 829 q 679 831 675 829 l 679 615 l 642 615 q 595 749 642 708 q 444 790 549 790 l 296 790 q 279 771 279 790 l 279 451 l 410 451 q 486 489 457 451 q 515 592 515 526 l 553 592 l 553 271 l 515 271 q 484 372 515 332 q 410 413 453 413 l 279 413 l 279 57 q 296 39 279 39 l 490 39 q 634 93 585 39 q 683 249 683 147 l 721 249 l 721 -4 q 599 0 689 0 z "},"F":{"ha":735,"x_min":69,"x_max":693,"o":"m 378 0 l 69 0 l 69 42 l 125 38 q 150 68 150 38 l 150 761 q 126 790 150 790 l 124 790 l 69 788 l 69 829 l 672 829 q 693 831 689 829 l 693 615 l 656 615 q 608 749 656 707 q 458 790 561 790 l 296 790 q 279 772 279 790 l 279 438 l 383 438 q 463 476 433 438 q 493 579 493 514 l 531 579 l 531 260 l 493 260 q 463 360 493 322 q 383 399 432 399 l 279 399 l 279 67 q 306 38 279 38 l 378 42 l 378 0 z "},"G":{"ha":897,"x_min":63,"x_max":869,"o":"m 472 -14 q 170 93 278 -14 q 63 412 63 200 q 170 733 63 624 q 479 843 278 843 q 703 792 589 843 q 768 783 722 783 q 763 688 763 756 l 763 658 q 764 640 763 646 l 764 624 l 768 601 l 713 601 q 714 637 714 608 q 700 694 714 665 q 472 808 651 808 q 278 707 351 808 q 204 410 204 606 q 479 24 204 24 q 581 37 542 24 q 657 88 619 50 l 657 310 q 631 340 657 340 l 549 338 l 549 378 l 869 378 l 869 338 l 813 340 q 786 311 786 340 l 786 49 q 767 50 779 50 l 739 47 q 696 36 718 43 l 622 10 q 472 -14 553 -14 z "},"H":{"ha":967,"x_min":69,"x_max":897,"o":"m 688 761 q 661 790 688 793 l 593 788 l 593 829 l 897 829 l 897 788 l 843 790 q 824 783 831 792 q 817 761 817 775 l 817 68 q 843 38 817 38 l 897 40 l 897 0 l 593 0 l 593 40 l 661 38 q 688 68 688 38 l 688 408 l 279 408 l 279 68 q 307 38 279 38 l 375 40 l 375 0 l 69 0 l 69 40 l 124 38 q 150 68 150 38 l 150 761 q 124 790 150 793 l 69 788 l 69 829 l 375 829 l 375 788 l 307 790 q 287 783 294 792 q 279 761 279 774 l 279 447 l 688 447 l 688 761 z "},"I":{"ha":431,"x_min":69,"x_max":361,"o":"m 361 0 l 69 0 l 69 40 l 124 38 q 150 68 150 38 l 150 761 q 143 783 150 774 q 124 790 136 792 l 69 788 l 69 829 l 361 829 l 361 788 l 307 790 q 287 783 294 792 q 279 761 279 774 l 279 68 q 307 38 279 38 l 361 40 l 361 0 z "},"J":{"ha":626,"x_min":33,"x_max":564,"o":"m 33 -1 l 33 239 l 83 239 q 142 61 83 125 q 236 22 176 22 q 325 74 296 22 q 354 249 354 125 l 354 761 q 347 783 354 774 q 328 790 339 792 l 232 788 l 232 829 l 564 829 l 564 788 l 511 790 q 491 783 499 792 q 483 763 483 775 l 483 249 q 251 -14 483 -14 q 153 -3 208 -14 q 69 7 97 7 q 33 -1 42 7 z "},"K":{"ha":857,"x_min":69,"x_max":849,"o":"m 375 0 l 69 0 l 69 40 l 124 38 q 150 68 150 38 l 150 761 q 143 783 150 775 q 124 790 136 792 l 69 788 l 69 829 l 375 829 l 375 788 l 307 790 q 279 760 279 790 l 279 386 l 578 740 l 593 761 q 601 778 601 772 q 588 790 601 790 l 529 788 l 529 829 l 776 829 l 776 788 l 729 790 q 726 790 728 790 q 649 750 686 790 l 435 510 l 768 57 q 801 38 783 38 l 806 38 l 849 42 l 849 0 l 519 0 l 519 42 l 590 38 q 611 72 633 35 l 357 417 l 279 325 l 279 68 q 307 38 279 38 l 375 40 l 375 0 z "},"L":{"ha":714,"x_min":69,"x_max":683,"o":"m 511 0 l 69 0 l 69 42 l 129 38 q 150 68 150 38 l 150 761 q 142 783 150 774 q 124 790 135 792 l 69 788 l 69 829 l 375 829 l 375 788 l 307 790 q 287 783 294 792 q 279 761 279 774 l 279 57 q 296 39 279 39 l 453 39 q 598 90 549 39 q 647 238 647 140 l 683 238 l 683 -4 q 511 0 658 0 z "},"M":{"ha":1192,"x_min":63,"x_max":1122,"o":"m 286 0 l 63 0 l 63 40 l 117 38 q 144 68 144 38 l 144 782 q 131 790 144 792 l 72 788 l 72 829 l 286 829 l 610 156 l 913 829 l 1115 829 l 1115 788 l 1068 790 q 1048 783 1056 792 q 1040 763 1040 775 l 1040 68 q 1068 38 1040 38 l 1122 40 l 1122 0 l 817 0 l 817 40 l 885 38 q 913 68 913 38 l 913 722 l 582 -14 l 549 -14 l 192 731 l 192 68 q 218 38 192 38 l 286 40 l 286 0 z "},"N":{"ha":919,"x_min":63,"x_max":857,"o":"m 286 0 l 63 0 l 63 40 l 117 38 q 144 68 144 38 l 144 761 q 137 783 144 774 q 117 790 129 792 l 63 788 l 63 829 l 278 829 l 729 214 l 729 763 q 706 790 729 790 l 701 790 l 633 788 l 633 829 l 857 829 l 857 788 l 803 790 l 800 790 q 776 761 776 790 l 776 -8 l 735 -8 l 192 729 l 192 68 q 218 38 192 38 l 286 40 l 286 0 z "},"O":{"ha":931,"x_min":63,"x_max":868,"o":"m 154 115 q 63 415 63 217 q 154 715 63 614 q 298 817 222 792 q 465 843 374 843 q 776 715 661 843 q 868 415 868 614 q 776 115 868 217 q 465 -14 660 -14 q 299 13 375 -14 q 154 115 222 39 m 465 806 q 398 806 465 806 q 267 714 331 806 q 204 415 204 622 q 267 115 204 207 q 465 24 331 24 q 663 115 600 24 q 726 415 726 207 q 663 714 726 622 q 465 806 600 806 z "},"P":{"ha":726,"x_min":69,"x_max":678,"o":"m 150 760 q 118 790 150 793 l 69 788 l 69 829 l 396 829 q 609 774 540 829 q 678 608 678 719 q 610 431 678 496 q 425 365 542 365 l 279 365 l 279 68 q 307 38 279 38 l 375 40 l 375 0 l 69 0 l 69 40 l 124 38 q 150 68 150 38 l 150 760 m 279 774 l 279 404 l 396 404 q 502 461 460 404 q 544 603 544 518 q 498 740 544 689 q 374 790 451 790 l 296 790 q 285 785 290 790 q 279 774 279 781 z "},"Q":{"ha":931,"x_min":63,"x_max":868,"o":"m 156 112 q 109 164 156 112 q 63 415 63 217 q 154 715 63 614 q 298 817 222 792 q 465 843 374 843 q 776 715 661 843 q 868 415 868 614 q 774 112 868 217 q 535 -10 681 7 q 599 -168 535 -106 q 769 -231 664 -231 l 751 -272 q 495 -199 596 -272 q 394 -10 394 -125 q 156 112 250 7 m 465 806 q 398 806 465 806 q 267 714 331 806 q 204 415 204 622 q 267 115 204 207 q 465 24 331 24 q 663 115 600 24 q 726 415 726 207 q 663 714 726 622 q 465 806 600 806 z "},"R":{"ha":807,"x_min":69,"x_max":781,"o":"m 592 0 q 569 144 569 46 l 569 190 q 502 346 569 294 q 338 397 435 397 l 279 397 l 279 68 q 307 38 279 38 l 375 40 l 375 0 l 69 0 l 69 40 l 124 38 q 150 68 150 38 l 150 761 q 122 790 150 790 q 119 790 121 790 l 69 788 l 69 829 l 382 829 q 606 777 536 829 q 675 608 675 725 q 628 485 675 538 q 506 413 582 433 q 635 346 575 413 q 694 169 694 279 q 705 85 694 128 q 735 39 715 42 q 758 36 743 36 q 781 42 772 36 l 781 0 l 592 0 m 279 776 l 279 435 l 408 435 q 508 481 472 435 q 544 615 544 526 q 505 747 544 704 q 382 790 465 790 l 296 790 q 279 776 279 790 z "},"S":{"ha":686,"x_min":67,"x_max":635,"o":"m 67 282 l 101 282 q 357 25 133 25 q 467 71 426 25 q 510 192 508 117 q 372 353 510 299 l 231 410 q 78 613 78 471 q 145 776 78 710 q 335 843 213 843 q 406 836 371 843 l 464 819 l 514 803 q 556 794 536 794 q 592 800 576 794 q 588 697 588 767 q 596 603 588 628 l 560 603 q 501 749 560 693 q 361 806 442 806 q 236 766 281 806 q 192 656 192 726 q 311 514 192 561 l 439 463 q 590 367 544 419 q 635 233 635 315 q 558 56 635 125 q 372 -14 481 -14 q 223 6 290 -14 q 117 25 156 25 q 72 18 79 25 q 78 147 78 47 q 67 282 78 246 z "},"T":{"ha":735,"x_min":21,"x_max":714,"o":"m 57 615 l 21 615 l 21 832 q 76 829 40 829 l 658 829 q 714 832 703 829 l 714 615 l 678 615 q 638 748 678 706 q 507 790 599 790 l 449 790 q 432 775 435 790 l 432 68 q 460 38 432 38 l 533 40 l 533 0 l 201 0 l 201 40 l 276 38 q 303 72 303 38 l 303 774 q 286 790 303 790 l 229 790 q 97 748 138 790 q 57 615 57 706 z "},"U":{"ha":904,"x_min":49,"x_max":869,"o":"m 101 790 l 49 788 l 49 829 l 353 829 l 353 788 l 285 790 q 265 783 272 792 q 257 763 257 775 l 257 276 q 322 94 257 160 q 495 29 386 29 q 672 99 604 29 q 739 275 739 169 l 739 761 q 732 783 739 775 q 714 790 725 792 l 646 788 l 646 829 l 869 829 l 869 788 l 815 790 q 795 783 803 792 q 788 763 788 775 l 788 263 q 700 65 788 143 q 478 -14 613 -14 q 218 60 308 -14 q 128 276 128 135 l 128 761 q 120 783 128 774 q 101 790 113 792 z "},"V":{"ha":811,"x_min":-7,"x_max":839,"o":"m 32 790 l -7 788 l -7 829 l 292 829 l 292 788 l 218 790 q 205 779 208 790 q 206 757 201 768 l 457 179 l 699 742 l 704 758 q 692 790 714 790 l 621 788 l 621 829 l 839 829 l 839 788 l 789 790 q 773 785 778 792 q 760 758 768 778 l 429 -6 l 393 -6 l 64 758 q 32 790 49 790 z "},"W":{"ha":1228,"x_min":-7,"x_max":1256,"o":"m 32 790 l -7 788 l -7 829 l 293 829 l 293 788 l 219 790 q 201 775 201 792 q 206 760 201 772 l 413 215 l 588 757 q 590 771 590 768 q 564 790 590 790 l 558 790 l 507 788 l 507 829 l 796 829 l 796 788 l 738 790 q 723 781 726 793 q 724 760 719 768 l 951 196 l 1131 763 q 1131 783 1135 774 q 1115 790 1126 792 l 1043 788 l 1043 829 l 1256 829 l 1256 788 l 1214 790 q 1211 790 1213 790 q 1179 761 1189 790 l 928 -14 l 906 -14 l 619 708 l 383 -14 l 357 -14 l 64 760 q 35 790 54 790 l 32 790 z "},"X":{"ha":786,"x_min":42,"x_max":803,"o":"m 263 0 l 42 0 l 42 42 l 88 39 l 92 39 q 139 69 121 39 l 353 411 l 143 764 q 99 790 129 790 l 54 788 l 54 829 l 371 829 l 371 788 l 313 790 q 290 781 296 792 q 293 761 285 771 l 444 501 l 610 763 q 616 783 618 774 q 599 790 614 792 l 539 788 l 539 829 l 750 829 l 750 788 l 711 790 l 707 790 q 664 763 683 790 l 472 456 l 707 61 q 746 38 719 38 q 749 38 747 38 l 803 42 l 803 0 l 476 0 l 476 42 l 544 38 q 562 47 560 36 q 554 69 564 58 l 379 365 l 192 65 q 188 44 185 53 q 200 38 192 36 l 263 42 l 263 0 z "},"Y":{"ha":704,"x_min":-7,"x_max":718,"o":"m 31 790 l -7 788 l -7 829 l 300 829 l 300 788 l 226 790 q 210 780 213 792 q 217 757 208 768 l 407 440 l 589 763 q 579 790 603 790 l 507 788 l 507 829 l 718 829 l 718 788 l 678 790 l 676 790 q 638 761 654 790 l 435 400 l 435 67 q 463 38 435 38 l 529 40 l 529 0 l 211 0 l 211 40 l 279 38 q 306 68 306 38 l 306 365 l 65 764 q 32 790 51 790 l 31 790 z "},"Z":{"ha":711,"x_min":47,"x_max":683,"o":"m 515 0 l 47 0 l 47 38 l 492 790 l 282 790 q 134 748 182 790 q 86 615 86 706 l 49 615 l 49 833 l 65 833 q 106 831 72 833 l 156 831 q 200 829 188 831 l 644 829 l 644 796 l 196 38 l 438 38 q 590 90 533 38 q 646 232 646 142 l 683 232 l 672 -6 q 515 0 656 0 z "},"[":{"ha":356,"x_min":64,"x_max":310,"o":"m 310 -204 l 64 -204 l 64 938 l 310 938 l 310 900 l 165 900 l 165 -167 l 310 -167 l 310 -204 z "},"\\":{"ha":344,"x_min":-11,"x_max":347,"o":"m 292 -7 l -11 869 l 43 882 l 347 8 l 292 -7 z "},"]":{"ha":356,"x_min":47,"x_max":292,"o":"m 47 -204 l 47 -167 l 193 -167 l 193 900 l 47 900 l 47 938 l 292 938 l 292 -204 l 47 -204 z "},"^":{"ha":639,"x_min":25,"x_max":614,"o":"m 89 446 l 25 446 l 304 913 l 336 913 l 614 446 l 549 446 l 347 786 l 319 844 l 293 786 l 89 446 z "},"_":{"ha":685,"x_min":0,"x_max":685,"o":"m 0 -254 l 0 -199 l 685 -199 l 685 -254 l 0 -254 z "},"`":{"ha":718,"x_min":254,"x_max":540,"o":"m 268 853 q 254 872 254 864 q 282 893 254 879 q 326 907 310 907 q 351 903 343 907 q 383 872 363 897 l 515 728 q 540 696 540 700 q 524 685 540 685 q 494 697 507 685 l 268 853 z "},"a":{"ha":625,"x_min":38,"x_max":597,"o":"m 38 146 q 126 307 38 256 q 408 358 214 358 l 408 439 q 378 531 408 501 q 286 560 349 560 q 182 499 182 560 q 189 474 182 488 q 196 443 196 460 q 177 415 196 426 q 129 403 158 403 q 68 465 68 403 q 123 563 68 528 q 293 597 178 597 q 468 550 408 597 q 528 401 528 503 l 528 60 q 546 33 528 33 l 597 36 l 597 0 l 400 0 q 406 51 403 18 l 408 106 q 221 -7 351 -7 q 38 146 38 -7 m 164 156 q 189 73 164 103 q 258 43 214 43 q 365 99 322 43 q 408 240 408 154 l 408 321 q 219 283 275 321 q 164 156 164 244 z "},"b":{"ha":689,"x_min":29,"x_max":640,"o":"m 79 982 l 29 979 l 29 1014 l 218 1014 l 218 475 q 400 597 269 597 q 640 292 640 597 q 376 -14 640 -14 q 293 0 328 -14 q 243 29 258 14 q 207 72 228 44 q 182 85 200 85 q 143 -7 143 85 l 97 -7 l 97 954 q 79 982 97 982 m 221 314 l 221 256 q 376 24 221 24 q 485 81 456 24 q 514 293 514 138 q 488 504 514 449 q 385 560 463 560 q 264 494 307 560 q 221 314 221 428 z "},"c":{"ha":590,"x_min":50,"x_max":564,"o":"m 332 -14 q 124 65 199 -14 q 50 286 50 144 q 125 513 50 428 q 322 597 200 597 q 474 556 411 597 q 538 454 538 515 q 520 406 538 425 q 478 386 503 386 q 422 425 422 386 q 428 456 422 439 q 435 490 435 474 q 402 542 435 524 q 322 560 369 560 q 213 496 247 560 q 179 286 179 432 q 340 24 179 24 q 458 67 403 24 q 529 172 513 110 l 564 149 q 332 -14 514 -14 z "},"d":{"ha":689,"x_min":49,"x_max":661,"o":"m 49 290 q 311 597 49 597 q 416 565 375 597 q 471 483 457 533 l 471 954 q 453 982 471 982 l 389 979 l 389 1014 l 592 1014 l 592 60 q 610 33 592 33 l 661 36 l 661 0 l 461 0 q 464 22 464 11 l 464 53 q 465 78 464 64 l 467 93 q 313 -14 432 -14 q 110 60 171 -14 q 49 290 49 135 m 311 560 q 206 490 236 560 q 176 281 176 421 q 205 82 176 140 q 315 24 233 24 q 433 79 397 24 q 468 256 468 135 l 468 314 q 311 560 468 560 z "},"e":{"ha":624,"x_min":49,"x_max":575,"o":"m 49 290 q 119 519 49 442 q 328 597 190 597 q 505 527 438 597 q 575 335 572 457 l 575 294 l 175 294 q 350 32 175 33 q 467 67 419 32 q 538 153 515 101 l 569 129 q 476 24 542 63 q 331 -14 410 -14 q 49 290 49 -14 m 176 329 l 429 329 q 457 375 457 329 q 427 515 457 469 q 324 560 397 560 q 213 496 250 560 q 176 329 176 432 z "},"f":{"ha":411,"x_min":49,"x_max":515,"o":"m 228 829 l 236 624 l 236 583 l 385 583 l 385 549 l 238 549 l 238 60 q 256 33 238 33 l 347 36 l 347 0 l 49 0 l 49 36 l 114 33 q 120 35 119 33 q 119 45 121 38 q 118 60 118 53 l 118 549 l 64 549 l 64 583 l 118 583 l 118 675 q 147 901 118 833 q 342 1022 199 1022 l 361 1022 q 469 997 422 1022 q 515 913 515 971 q 460 867 515 867 q 426 876 442 867 q 410 902 410 886 q 415 931 410 918 q 419 949 419 944 q 358 988 419 988 q 228 829 228 988 z "},"g":{"ha":639,"x_min":44,"x_max":649,"o":"m 299 -340 q 44 -150 44 -340 q 169 7 44 -53 q 115 24 133 17 q 80 55 97 32 q 63 112 63 78 q 114 179 63 146 q 171 221 165 213 q 104 286 129 240 q 79 389 79 332 q 145 540 79 482 q 315 597 211 597 q 421 581 369 597 q 506 665 456 628 q 588 701 557 701 q 634 683 619 701 q 649 643 649 664 q 636 606 649 622 q 601 589 624 589 q 566 605 579 589 q 540 621 553 621 q 498 606 528 621 q 450 568 468 590 q 553 389 553 526 q 488 240 553 297 q 315 182 422 182 q 211 201 258 182 q 157 142 157 174 q 238 90 157 90 l 422 90 q 577 46 525 90 q 629 -105 629 1 q 539 -276 629 -211 q 299 -340 449 -340 m 278 0 q 166 -47 219 0 q 113 -157 113 -93 q 159 -262 113 -221 q 309 -304 206 -304 q 475 -251 413 -304 q 538 -112 538 -199 q 401 0 538 0 l 278 0 m 315 560 q 283 560 315 560 q 227 523 251 560 q 203 388 203 486 q 226 251 203 289 q 315 214 250 214 q 405 253 381 214 q 429 388 429 293 q 404 521 429 482 q 315 560 379 560 z "},"h":{"ha":729,"x_min":49,"x_max":701,"o":"m 319 0 l 49 0 l 49 36 l 100 33 q 118 60 118 38 l 118 953 q 100 982 118 982 l 49 979 l 49 1014 l 238 1014 l 238 460 q 321 560 267 524 q 460 597 375 597 q 588 551 544 597 q 632 400 632 504 l 632 60 q 650 33 632 33 l 701 36 l 701 0 l 431 0 l 431 36 l 494 33 q 513 60 513 38 l 513 375 q 496 513 513 474 q 419 553 479 553 q 287 481 336 553 q 238 289 238 408 l 238 60 q 256 33 238 33 l 319 36 l 319 0 z "},"i":{"ha":354,"x_min":49,"x_max":306,"o":"m 306 0 l 49 0 l 49 36 l 100 33 q 118 60 118 33 l 118 522 q 101 550 118 546 l 50 547 l 50 583 l 238 583 l 238 60 q 256 33 238 33 l 306 36 l 306 0 m 169 813 q 152 813 169 813 q 114 830 135 813 q 93 878 93 847 q 114 926 93 908 q 168 944 135 944 q 223 926 201 944 q 244 878 244 908 q 224 830 244 847 q 169 813 203 813 z "},"j":{"ha":349,"x_min":-81,"x_max":247,"o":"m 121 -185 l 118 -82 l 118 522 q 100 550 118 550 l 43 547 l 43 583 l 238 583 l 238 -6 q 39 -337 238 -337 q -56 -329 -32 -337 q -81 -294 -81 -321 q -46 -235 -81 -235 q -24 -244 -32 -235 l -6 -267 q 47 -300 19 -300 q 121 -185 121 -300 m 170 813 q 153 813 170 813 q 116 830 136 813 q 96 878 96 847 q 117 927 96 910 q 171 944 138 944 q 226 926 204 944 q 247 878 247 908 q 226 830 247 847 q 170 813 204 813 z "},"k":{"ha":710,"x_min":49,"x_max":700,"o":"m 319 0 l 49 0 l 49 36 l 100 33 q 118 60 118 38 l 118 953 q 101 982 118 982 l 50 979 l 50 1014 l 238 1014 l 238 329 l 464 524 q 472 544 476 536 q 460 551 468 551 l 400 549 l 400 583 l 625 583 l 625 549 l 575 551 q 532 532 554 551 l 369 393 l 613 58 q 650 33 631 33 l 700 36 l 700 0 l 401 0 l 401 36 l 464 33 q 479 39 476 32 q 476 53 482 46 l 283 319 l 238 281 l 238 60 q 256 33 238 33 l 319 36 l 319 0 z "},"l":{"ha":354,"x_min":49,"x_max":306,"o":"m 306 0 l 49 0 l 49 36 l 100 33 q 118 60 118 38 l 118 954 q 101 983 118 978 l 50 981 l 50 1015 l 238 1015 l 238 60 q 256 33 238 33 l 306 36 l 306 0 z "},"m":{"ha":1113,"x_min":49,"x_max":1085,"o":"m 319 0 l 49 0 l 49 36 l 100 33 q 118 60 118 38 l 118 522 q 100 550 118 550 l 49 547 l 49 583 l 246 583 q 239 536 239 563 l 238 456 q 311 558 258 518 q 440 597 364 597 q 621 439 611 597 q 700 556 644 515 q 842 597 756 597 q 972 551 928 597 q 1015 400 1015 504 l 1015 60 q 1033 33 1015 33 l 1085 36 l 1085 0 l 814 0 l 814 36 l 878 33 q 896 60 896 38 l 896 375 q 879 513 896 474 q 803 553 863 553 q 676 480 725 553 q 626 289 626 407 l 626 60 q 644 33 626 33 l 710 36 l 710 0 l 425 0 l 425 36 l 489 33 q 507 60 507 38 l 507 378 q 488 517 507 483 q 401 551 469 551 q 285 478 332 551 q 238 292 238 406 l 238 60 q 256 33 238 33 l 319 36 l 319 0 z "},"n":{"ha":729,"x_min":49,"x_max":701,"o":"m 319 0 l 49 0 l 49 36 l 100 33 q 118 60 118 38 l 118 522 q 100 550 118 546 l 49 547 l 49 583 l 244 583 q 238 535 238 563 l 238 460 q 321 560 267 524 q 460 597 375 597 q 588 551 544 597 q 632 400 632 504 l 632 60 q 650 33 632 33 l 701 36 l 701 0 l 431 0 l 431 36 l 494 33 q 513 60 513 38 l 513 375 q 496 513 513 474 q 419 553 479 553 q 287 481 336 553 q 238 289 238 408 l 238 60 q 256 33 238 33 l 319 36 l 319 0 z "},"o":{"ha":656,"x_min":49,"x_max":607,"o":"m 328 -14 q 259 -14 328 -14 q 119 67 190 -14 q 49 292 49 149 q 119 516 49 435 q 328 597 190 597 q 536 516 465 597 q 607 292 607 435 q 536 67 607 149 q 328 -14 465 -14 m 328 560 q 287 560 328 560 q 210 496 246 560 q 175 291 175 432 q 210 87 175 150 q 328 24 246 24 q 445 87 410 24 q 481 291 481 150 q 445 496 481 432 q 328 560 410 560 z "},"p":{"ha":686,"x_min":28,"x_max":638,"o":"m 78 550 l 28 547 l 28 583 l 221 583 q 215 513 215 549 l 215 472 q 399 597 258 597 q 638 290 638 597 q 573 62 638 138 q 382 -14 508 -14 q 215 60 256 -14 l 215 -271 q 233 -299 215 -299 l 319 -296 l 319 -332 l 33 -332 l 33 -296 l 78 -299 q 96 -271 96 -297 l 96 522 q 78 550 96 550 m 218 314 l 218 256 q 374 24 218 24 q 482 81 453 24 q 511 291 511 138 q 485 502 511 444 q 382 560 458 560 q 262 492 306 560 q 218 314 218 425 z "},"q":{"ha":681,"x_min":49,"x_max":653,"o":"m 590 -271 q 608 -297 590 -300 l 653 -296 l 653 -332 l 375 -332 l 375 -296 l 453 -297 q 471 -271 471 -296 l 471 86 q 413 15 456 44 q 308 -14 371 -14 q 113 53 176 -14 q 49 290 49 119 q 311 597 49 597 q 406 580 369 597 q 474 521 443 563 q 501 501 489 501 q 544 583 544 501 l 590 583 l 590 -271 m 321 560 q 210 498 244 560 q 176 307 176 436 q 194 118 176 178 q 240 41 213 58 q 311 24 267 24 q 387 48 356 24 q 435 108 418 72 q 468 257 468 183 l 468 314 q 447 458 468 403 q 394 536 425 513 q 321 560 364 560 z "},"r":{"ha":532,"x_min":49,"x_max":513,"o":"m 401 486 l 407 521 q 368 544 407 544 q 273 459 310 544 q 236 289 236 374 l 236 60 q 254 33 236 33 l 339 36 l 339 0 l 54 0 l 54 36 l 99 33 q 117 60 117 33 l 117 522 q 99 550 117 550 l 49 547 l 49 583 l 244 583 q 236 519 236 561 l 236 453 q 408 597 294 597 q 485 575 458 597 q 513 514 513 553 q 458 450 513 450 q 401 486 401 450 z "},"s":{"ha":571,"x_min":61,"x_max":525,"o":"m 61 14 l 68 197 l 104 200 q 163 74 104 124 q 306 24 222 24 q 392 52 361 24 q 422 124 422 81 q 400 193 422 168 q 325 233 378 218 l 192 271 q 104 327 136 288 q 72 434 72 367 q 129 549 72 501 q 285 597 186 597 q 381 582 322 597 l 419 572 q 453 567 435 567 q 490 578 472 567 l 482 419 l 451 419 q 408 517 451 475 q 300 560 364 560 q 206 532 236 560 q 176 461 176 504 q 263 369 176 393 l 396 332 q 496 274 467 313 q 525 175 525 236 q 461 35 525 85 q 294 -14 397 -14 q 186 4 249 -14 l 139 17 q 96 22 118 22 q 61 14 74 22 z "},"t":{"ha":435,"x_min":35,"x_max":396,"o":"m 118 549 l 35 549 l 35 583 q 147 609 115 583 q 199 725 178 635 l 238 725 l 238 583 l 390 583 l 390 549 l 238 549 l 238 122 q 250 51 238 69 q 289 32 263 32 q 338 48 315 32 q 367 88 360 64 l 396 69 q 249 -8 368 -8 q 148 25 178 -8 q 118 133 118 58 l 118 549 z "},"u":{"ha":728,"x_min":28,"x_max":679,"o":"m 78 550 l 28 547 l 28 583 l 215 583 l 215 206 q 232 72 215 111 q 300 32 249 32 q 438 102 386 32 q 490 293 490 172 l 490 521 q 474 550 490 550 l 408 547 l 408 583 l 611 583 l 611 60 q 629 33 611 33 l 679 36 l 679 0 l 482 0 q 490 121 490 19 q 271 -14 433 -14 q 137 38 178 -14 q 96 206 96 89 l 96 522 q 78 550 96 550 z "},"v":{"ha":617,"x_min":-18,"x_max":604,"o":"m 28 550 l -18 547 l -18 583 l 264 583 l 264 547 l 203 550 q 185 542 193 550 q 182 522 178 533 l 333 156 l 481 528 q 483 543 485 535 q 469 550 481 551 l 408 547 l 408 583 l 604 583 l 604 547 l 558 550 q 526 529 533 550 l 307 -7 l 269 -7 l 56 532 q 28 550 47 550 z "},"w":{"ha":1007,"x_min":-18,"x_max":994,"o":"m 46 550 l -18 547 l -18 583 l 278 583 l 278 547 l 217 550 q 197 543 201 551 q 196 522 192 535 l 326 153 l 517 590 l 546 590 l 729 163 l 863 526 q 864 543 867 535 q 847 550 861 551 l 774 547 l 774 583 l 994 583 l 994 547 l 938 550 q 908 526 917 550 l 701 -14 l 671 -14 l 486 418 l 293 -14 l 265 -14 l 69 532 q 46 550 61 550 z "},"x":{"ha":675,"x_min":7,"x_max":664,"o":"m 218 0 l 7 0 l 7 36 l 67 33 q 96 51 82 33 l 271 288 l 96 532 q 69 550 86 550 l 15 547 l 15 583 l 314 583 l 314 547 l 250 550 q 236 545 240 550 q 238 532 232 540 l 357 363 l 481 526 q 485 542 486 533 q 472 550 483 550 l 413 547 l 413 583 l 619 583 l 619 547 l 561 550 q 526 529 543 550 l 381 331 l 576 51 q 603 33 589 33 l 664 36 l 664 0 l 357 0 l 357 36 l 425 32 q 436 38 433 31 q 435 51 439 46 l 294 254 l 143 53 q 140 47 140 50 q 158 33 140 33 l 218 36 l 218 0 z "},"y":{"ha":674,"x_min":-18,"x_max":669,"o":"m 50 550 l -18 547 l -18 583 l 286 583 l 286 547 l 224 550 q 208 542 214 550 q 207 526 203 535 l 376 151 l 533 529 q 519 550 542 550 l 454 547 l 454 583 l 669 583 l 669 547 l 613 550 l 610 550 q 575 524 588 550 l 282 -183 q 211 -299 249 -265 q 127 -332 174 -332 q 55 -314 81 -332 q 26 -264 29 -296 q 42 -211 26 -229 q 81 -193 58 -193 q 118 -208 104 -193 q 142 -237 132 -222 q 168 -251 153 -251 q 232 -187 207 -251 l 314 1 l 72 532 q 50 550 64 550 z "},"z":{"ha":613,"x_min":47,"x_max":553,"o":"m 192 0 l 47 -3 l 47 25 l 393 549 l 257 549 q 92 389 117 549 l 63 389 l 75 586 l 94 586 q 208 583 153 583 l 539 583 l 539 557 l 199 35 l 344 35 q 524 193 524 35 l 553 193 l 553 0 l 192 0 z "},"{":{"ha":389,"x_min":42,"x_max":326,"o":"m 42 357 l 42 385 q 119 418 97 393 q 142 497 142 443 l 142 808 q 170 910 142 883 q 279 938 199 938 l 326 938 l 326 896 l 289 896 q 235 818 235 896 l 235 497 q 208 409 235 433 q 101 371 181 385 q 208 331 182 354 q 235 244 235 307 l 235 -83 q 289 -161 235 -161 l 326 -161 l 326 -203 l 279 -203 q 169 -176 197 -203 q 142 -74 142 -150 l 142 244 q 124 324 142 306 q 42 357 106 343 z "},"|":{"ha":322,"x_min":136,"x_max":186,"o":"m 186 -332 l 136 -332 l 136 1014 l 186 1014 l 186 -332 z "},"}":{"ha":403,"x_min":63,"x_max":361,"o":"m 63 -203 l 63 -161 l 114 -161 q 168 -83 168 -161 l 168 244 q 194 331 168 307 q 301 371 221 354 q 195 409 222 385 q 168 497 168 433 l 168 818 q 114 896 168 896 l 63 896 l 63 938 l 124 938 q 233 910 204 938 q 261 808 261 883 l 261 497 q 283 418 261 443 q 361 385 306 393 l 361 357 q 279 324 297 343 q 261 244 261 306 l 261 -74 q 233 -176 261 -150 q 124 -203 206 -203 l 63 -203 z "},"~":{"ha":639,"x_min":31,"x_max":610,"o":"m 68 314 l 31 354 q 182 456 90 456 q 319 410 228 456 q 448 365 410 365 q 513 383 486 365 q 571 447 539 401 l 610 407 q 451 299 544 299 q 315 344 407 299 q 185 389 224 389 q 123 374 146 389 q 68 314 100 360 z "}," ":{"ha":640,"x_min":0,"x_max":0,"o":""},"¡":{"ha":374,"x_min":69,"x_max":249,"o":"m 96 481 q 83 493 96 481 q 69 538 69 504 q 97 594 69 571 q 159 618 124 618 q 222 594 194 618 q 249 538 249 571 q 223 482 249 506 q 160 458 197 458 q 96 481 122 458 m 201 -47 q 228 -265 228 -193 q 159 -336 228 -336 q 90 -265 90 -336 q 117 -47 90 -193 q 143 303 143 146 q 159 325 143 325 q 175 303 175 325 q 201 -47 175 146 z "},"¢":{"ha":547,"x_min":71,"x_max":482,"o":"m 286 160 q 128 226 185 163 q 71 402 71 290 q 130 581 71 514 q 286 649 189 647 l 286 899 l 338 899 l 338 644 q 427 603 393 632 q 461 542 461 574 q 447 494 461 510 q 413 479 433 479 q 365 511 365 479 q 372 535 365 522 q 379 569 379 549 q 353 603 379 589 q 289 618 326 618 q 202 567 228 618 q 176 400 176 517 q 303 190 176 190 q 397 224 354 190 q 454 308 439 257 l 482 290 q 338 163 450 182 l 338 -132 l 286 -132 l 286 160 z "},"£":{"ha":704,"x_min":29,"x_max":644,"o":"m 631 -4 l 522 0 l 167 0 q 85 -2 139 0 q 29 -4 31 -4 q 125 90 89 29 q 161 217 161 150 l 161 425 l 50 425 l 50 457 l 161 457 l 161 569 q 219 778 161 713 q 406 843 276 843 q 529 808 479 843 q 579 722 579 774 q 562 683 579 700 q 522 667 544 667 q 483 681 500 667 q 465 708 465 694 q 471 738 465 722 l 476 760 q 397 811 476 811 q 306 774 342 811 q 271 676 271 738 l 279 614 q 286 550 285 568 l 292 494 q 293 457 293 479 l 460 457 l 460 425 l 294 425 l 294 314 q 258 191 294 258 q 181 101 221 124 l 428 101 q 573 128 536 101 q 610 233 610 156 l 644 233 l 631 -4 z "},"¤":{"ha":615,"x_min":58,"x_max":558,"o":"m 90 117 l 58 149 l 126 217 q 72 365 72 281 q 125 518 72 450 l 60 583 l 92 615 l 157 550 q 309 604 226 604 q 461 549 392 604 l 526 614 l 558 582 l 492 517 q 546 367 546 447 q 490 215 546 288 l 557 147 l 525 115 l 458 183 q 307 131 390 131 q 158 185 224 131 l 90 117 m 309 560 q 269 560 309 560 q 172 503 229 560 q 115 367 115 447 q 172 231 115 288 q 309 175 229 175 q 445 231 389 175 q 501 367 501 288 q 445 503 501 447 q 309 560 389 560 z "},"¥":{"ha":704,"x_min":-7,"x_max":718,"o":"m 31 790 l -7 788 l -7 829 l 300 829 l 300 788 l 226 790 q 210 780 213 792 q 217 757 208 768 l 407 440 l 589 763 q 579 790 603 790 l 507 788 l 507 829 l 718 829 l 718 788 l 678 790 q 676 790 676 790 q 638 761 654 790 l 476 474 l 618 474 l 618 433 l 453 433 l 435 400 l 435 321 l 618 321 l 618 281 l 435 281 l 435 67 q 463 38 435 38 l 529 40 l 529 0 l 211 0 l 211 40 l 279 38 q 306 68 306 38 l 306 281 l 122 281 l 122 321 l 306 321 l 306 365 l 264 433 l 122 433 l 122 474 l 240 474 l 65 764 q 32 790 51 790 q 31 790 32 790 z "},"¦":{"ha":322,"x_min":135,"x_max":188,"o":"m 135 -321 l 135 157 l 188 157 l 188 -321 l 135 -321 m 188 368 l 135 368 l 135 843 l 188 843 l 188 368 z "},"§":{"ha":607,"x_min":49,"x_max":565,"o":"m 49 353 q 77 445 49 410 q 172 507 106 481 q 103 576 121 544 q 86 663 86 608 q 153 793 86 743 q 321 843 219 843 q 479 808 422 843 q 536 710 536 774 q 515 658 536 681 q 467 636 494 636 q 423 650 440 636 q 406 677 406 664 q 419 715 406 690 q 433 758 433 739 q 395 794 433 778 q 310 811 357 811 q 226 783 263 811 q 190 713 190 756 q 205 649 190 669 q 271 594 219 629 l 443 476 q 565 301 565 393 q 442 147 565 192 q 508 78 488 113 q 528 -7 528 43 q 459 -138 528 -86 q 292 -190 390 -190 q 135 -154 193 -190 q 78 -57 78 -118 q 99 -4 78 -28 q 147 19 119 19 q 192 6 175 19 q 208 -26 208 -7 q 194 -65 208 -44 q 181 -104 181 -85 q 217 -140 181 -124 q 303 -156 253 -156 q 389 -128 353 -156 q 425 -60 425 -100 q 410 1 425 -19 q 343 60 394 22 l 171 179 q 49 353 49 263 m 139 419 q 200 315 139 356 l 408 172 q 457 196 443 181 q 471 242 471 211 q 415 340 471 301 l 206 483 q 139 419 139 467 z "},"¨":{"ha":621,"x_min":107,"x_max":528,"o":"m 128 741 q 117 750 128 741 q 107 789 107 760 q 128 838 107 818 q 181 857 150 857 q 235 838 213 857 q 257 789 257 818 q 236 741 257 760 q 182 722 215 722 q 128 741 149 722 m 399 741 q 388 750 399 741 q 378 789 378 760 q 399 838 378 818 q 452 857 421 857 q 506 838 483 857 q 528 789 528 818 q 507 741 528 760 q 453 722 486 722 q 399 741 419 722 z "},"©":{"ha":935,"x_min":78,"x_max":871,"o":"m 194 101 q 136 159 194 101 q 78 381 78 217 q 194 661 78 544 q 474 778 310 778 q 754 661 638 778 q 871 381 871 544 q 754 101 871 217 q 474 -15 638 -15 q 194 101 310 -15 m 224 632 q 173 580 224 632 q 122 381 122 528 q 224 130 122 233 q 473 26 326 26 q 722 130 619 26 q 824 381 824 233 q 721 632 824 528 q 472 736 618 736 q 224 632 326 736 m 644 508 q 646 486 644 500 l 629 486 q 577 570 618 538 q 474 603 536 603 q 371 541 411 603 q 331 382 331 479 q 372 225 331 285 q 474 165 413 165 q 576 197 535 165 q 629 279 618 229 l 651 279 q 643 214 643 232 q 646 176 643 196 l 642 176 q 564 161 619 176 q 482 146 508 146 q 311 209 371 146 q 251 386 251 272 q 314 560 254 499 q 481 622 374 622 q 585 605 546 622 q 635 588 625 588 q 649 588 646 588 q 644 539 644 558 l 644 508 z "},"ª":{"ha":364,"x_min":0,"x_max":364,"o":"m 0 571 q 56 669 0 638 q 231 701 111 701 l 231 753 q 158 822 231 822 q 110 814 119 822 q 101 775 101 806 q 58 735 101 735 q 15 779 15 735 q 158 854 15 854 q 276 825 239 854 q 314 732 314 796 l 314 528 q 322 518 314 518 l 364 519 l 364 486 l 232 486 l 236 551 q 117 475 206 475 q 0 571 0 475 m 88 578 q 140 518 88 518 q 203 552 176 518 q 231 635 231 586 l 231 669 q 88 578 88 669 z "},"«":{"ha":635,"x_min":36,"x_max":524,"o":"m 243 22 l 36 260 l 243 497 l 293 497 l 157 260 l 293 22 l 243 22 m 475 22 l 268 260 l 475 497 l 524 497 l 389 260 l 524 22 l 475 22 z "},"¬":{"ha":639,"x_min":28,"x_max":611,"o":"m 551 443 l 28 443 l 28 500 l 611 500 l 611 203 l 551 203 l 551 443 z "},"­":{"ha":346,"x_min":31,"x_max":317,"o":"m 317 263 l 31 263 l 31 339 l 317 339 l 317 263 z "},"®":{"ha":935,"x_min":78,"x_max":871,"o":"m 194 101 q 136 159 194 101 q 78 381 78 217 q 194 661 78 544 q 474 778 310 778 q 754 661 638 778 q 871 381 871 544 q 754 101 871 217 q 474 -15 638 -15 q 194 101 310 -15 m 224 632 q 173 580 224 632 q 122 381 122 528 q 224 130 122 233 q 473 26 326 26 q 722 130 619 26 q 824 381 824 233 q 721 632 824 528 q 472 736 618 736 q 224 632 326 736 m 338 200 l 339 219 l 339 575 q 328 601 339 593 q 283 608 317 608 l 283 633 l 504 633 q 615 603 576 633 q 654 521 654 574 q 620 433 654 468 q 529 392 586 399 q 583 356 563 388 l 631 267 q 651 227 643 242 q 665 203 660 213 q 676 190 669 193 q 685 185 683 186 q 696 184 686 183 q 708 185 706 185 l 708 164 l 643 164 q 602 172 614 164 q 575 214 590 179 l 546 278 q 497 362 515 346 q 417 378 479 378 l 417 206 l 424 192 l 438 186 l 471 186 l 471 164 l 283 164 l 283 185 q 309 185 299 185 q 322 185 319 185 q 327 188 324 186 q 332 190 331 189 q 338 200 338 196 m 417 568 l 417 404 l 453 404 q 578 505 578 404 q 471 606 578 606 q 426 600 436 606 q 417 568 417 594 z "},"¯":{"ha":621,"x_min":144,"x_max":476,"o":"m 476 788 l 144 788 l 144 843 l 476 843 l 476 788 z "},"°":{"ha":519,"x_min":124,"x_max":396,"o":"m 165 612 q 144 632 165 612 q 124 707 124 653 q 165 802 124 761 q 260 843 206 843 q 355 802 314 843 q 396 707 396 761 q 355 612 396 653 q 260 571 314 571 q 165 612 206 571 m 204 762 q 192 750 204 762 q 181 707 181 739 q 204 652 181 675 q 259 629 228 629 q 314 652 290 629 q 338 707 338 675 q 314 762 338 739 q 259 785 290 785 q 204 762 228 785 z "},"±":{"ha":639,"x_min":28,"x_max":611,"o":"m 611 0 l 28 0 l 28 57 l 611 57 l 611 0 m 288 381 l 28 381 l 28 438 l 288 438 l 288 703 l 350 703 l 350 438 l 611 438 l 611 381 l 350 381 l 350 111 l 288 111 l 288 381 z "},"²":{"ha":365,"x_min":40,"x_max":318,"o":"m 176 925 q 167 925 176 925 q 144 915 157 925 q 131 888 131 904 q 139 858 131 872 q 125 835 139 844 q 94 826 111 826 q 63 838 76 826 q 49 874 49 849 q 83 924 49 899 q 178 949 117 949 q 276 923 239 949 q 313 843 313 897 q 242 728 313 789 l 178 676 q 121 614 144 647 l 222 614 q 272 667 272 614 l 318 667 q 314 571 314 613 l 314 558 q 282 561 292 561 l 40 561 q 142 710 53 628 q 199 776 174 739 q 225 849 225 814 q 210 904 225 883 q 176 925 196 925 z "},"³":{"ha":367,"x_min":42,"x_max":329,"o":"m 136 875 l 138 864 q 124 843 138 851 q 93 835 111 835 q 63 846 75 835 q 50 875 50 857 q 179 947 50 947 q 272 926 236 947 q 308 867 308 904 q 203 764 308 793 q 329 664 329 749 q 286 582 329 613 q 178 551 243 551 q 77 572 113 551 q 42 626 42 592 q 54 658 42 644 q 85 671 67 671 q 117 662 104 671 q 131 640 131 653 l 128 624 q 142 592 128 604 q 182 579 157 579 q 224 604 207 579 q 242 665 242 629 q 212 722 242 701 q 117 749 182 742 l 117 772 q 188 800 157 772 q 219 860 219 828 q 208 907 219 892 q 179 922 196 922 q 136 881 136 922 l 136 875 z "},"´":{"ha":485,"x_min":150,"x_max":435,"o":"m 150 710 q 157 722 150 715 l 304 885 q 338 918 331 915 q 356 919 346 921 q 392 913 367 918 q 426 903 417 907 q 435 888 435 899 q 426 871 435 878 l 182 703 q 164 699 178 699 q 150 710 150 699 z "},"µ":{"ha":768,"x_min":11,"x_max":679,"o":"m 11 -374 l 11 -337 l 75 -339 q 96 -312 92 -337 l 96 524 q 78 550 96 550 l 28 547 l 28 583 l 215 583 l 215 206 q 232 72 215 111 q 300 32 249 32 q 438 102 386 32 q 490 293 490 172 l 490 521 q 474 550 490 550 l 408 547 l 408 583 l 611 583 l 611 60 q 629 33 611 33 l 679 36 l 679 0 l 482 0 q 490 121 490 19 q 415 23 465 60 q 303 -14 364 -14 q 213 14 243 -14 l 213 -312 q 232 -339 213 -335 l 296 -337 l 296 -374 l 11 -374 z "},"¶":{"ha":693,"x_min":42,"x_max":664,"o":"m 317 400 q 114 456 186 400 q 42 613 42 511 q 115 772 42 714 q 317 829 188 829 l 664 829 l 664 786 l 524 786 l 524 -374 l 475 -374 l 475 786 l 418 786 q 365 733 365 786 l 365 -374 l 317 -374 l 317 400 z "},"·":{"ha":319,"x_min":69,"x_max":250,"o":"m 95 198 q 82 209 95 198 q 69 256 69 219 q 95 314 69 292 q 160 336 121 336 q 224 314 199 336 q 250 256 250 292 q 224 198 250 219 q 160 176 199 176 q 95 198 121 176 z "},"¸":{"ha":621,"x_min":182,"x_max":408,"o":"m 182 -275 l 192 -242 q 240 -260 208 -260 q 295 -238 272 -260 q 318 -186 318 -217 q 271 -131 318 -156 l 239 -111 q 224 -90 224 -100 q 232 -72 224 -81 l 289 0 l 335 0 l 297 -60 q 289 -86 289 -74 q 349 -112 289 -101 q 390 -131 371 -117 q 408 -169 408 -144 q 374 -263 408 -229 q 278 -297 340 -297 q 182 -275 217 -297 z "},"¹":{"ha":260,"x_min":19,"x_max":236,"o":"m 19 874 q 140 949 82 890 l 175 949 l 175 610 q 181 592 175 600 q 196 585 188 583 l 236 586 l 236 561 l 19 561 l 19 586 l 76 585 q 93 610 93 585 l 93 839 q 69 854 93 863 l 28 839 l 19 874 z "},"º":{"ha":488,"x_min":61,"x_max":426,"o":"m 242 478 q 198 478 242 478 q 108 531 154 478 q 61 670 61 583 q 110 808 61 757 q 243 858 158 858 q 377 808 328 858 q 426 668 426 758 q 378 528 426 578 q 242 478 331 478 m 177 790 q 168 772 177 790 q 160 667 160 754 q 176 545 160 579 q 241 511 192 511 q 309 542 290 511 q 328 665 328 574 q 310 791 328 757 q 243 825 292 825 q 177 790 194 825 z "},"»":{"ha":635,"x_min":81,"x_max":575,"o":"m 131 22 l 81 22 l 215 260 l 81 497 l 131 497 l 336 260 l 131 22 m 369 22 l 319 22 l 454 260 l 319 497 l 369 497 l 575 260 l 369 22 z "},"¼":{"ha":806,"x_min":56,"x_max":801,"o":"m 101 -97 l 56 -65 l 701 840 l 749 813 l 101 -97 m 75 874 q 196 949 138 890 l 231 949 l 231 610 q 237 592 231 600 q 251 585 243 583 l 292 586 l 292 561 l 75 561 l 75 586 l 132 585 q 149 610 149 585 l 149 839 q 125 854 149 863 l 83 839 l 75 874 m 674 13 l 510 13 l 510 56 q 542 94 513 61 l 711 304 l 756 304 l 756 65 l 801 65 l 801 11 l 756 11 l 756 -35 q 776 -60 756 -60 l 801 -58 l 801 -83 l 600 -83 l 600 -58 l 657 -60 q 674 -35 674 -60 l 674 13 m 672 203 l 560 65 l 672 65 l 672 203 z "},"½":{"ha":806,"x_min":56,"x_max":806,"o":"m 101 -97 l 56 -65 l 701 840 l 749 813 l 101 -97 m 75 874 q 196 949 138 890 l 231 949 l 231 610 q 237 592 231 600 q 251 585 243 583 l 292 586 l 292 561 l 75 561 l 75 586 l 132 585 q 149 610 149 585 l 149 839 q 125 854 149 863 l 83 839 l 75 874 m 664 281 q 654 281 664 281 q 631 270 644 281 q 618 247 618 260 q 626 214 618 233 q 613 191 626 200 q 581 182 599 182 q 550 193 564 182 q 536 229 536 204 q 570 279 536 254 q 665 304 604 304 q 763 278 726 304 q 800 198 800 253 q 728 83 800 143 l 667 32 q 608 -31 633 6 l 710 -31 q 760 22 760 -31 l 806 22 q 801 -74 801 -32 l 801 -86 q 769 -83 779 -83 l 528 -83 q 629 65 540 -17 q 687 132 661 94 q 713 204 713 169 q 698 260 713 239 q 664 281 683 281 z "},"¾":{"ha":806,"x_min":42,"x_max":803,"o":"m 136 875 l 138 864 q 124 843 138 851 q 93 835 111 835 q 63 846 75 835 q 50 875 50 857 q 179 947 50 947 q 272 926 236 947 q 308 867 308 904 q 203 764 308 793 q 329 664 329 749 q 286 582 329 613 q 178 551 243 551 q 77 572 113 551 q 42 626 42 592 q 54 658 42 644 q 85 671 67 671 q 117 662 104 671 q 131 640 131 653 l 128 624 q 142 592 128 604 q 182 579 157 579 q 224 604 207 579 q 242 665 242 629 q 212 722 242 701 q 117 749 182 742 l 117 772 q 188 800 157 772 q 219 860 219 828 q 208 907 219 892 q 179 922 196 922 q 136 881 136 922 l 136 875 m 101 -97 l 56 -65 l 701 840 l 749 813 l 101 -97 m 675 13 l 511 13 l 511 56 q 543 94 514 61 l 713 304 l 757 304 l 757 65 l 803 65 l 803 11 l 757 11 l 757 -35 q 778 -60 757 -60 l 803 -58 l 803 -83 l 601 -83 l 601 -58 l 658 -60 q 675 -35 675 -60 l 675 13 m 674 203 l 561 65 l 674 65 l 674 203 z "},"¿":{"ha":556,"x_min":50,"x_max":524,"o":"m 50 -160 q 90 -69 50 -115 q 176 10 129 -22 q 263 84 224 42 q 303 165 303 126 q 238 274 303 236 l 254 300 q 351 244 297 290 q 404 157 404 197 q 368 68 404 117 q 290 -19 332 19 q 211 -101 247 -57 q 175 -175 175 -146 q 203 -263 175 -232 q 283 -294 232 -294 q 417 -219 417 -294 q 428 -196 417 -208 q 461 -183 440 -183 q 503 -199 482 -183 q 524 -237 524 -215 q 453 -297 524 -268 q 278 -326 382 -326 q 113 -283 175 -326 q 50 -160 50 -240 m 306 458 q 287 458 306 458 q 242 479 268 458 q 215 537 215 500 q 242 596 215 574 q 303 618 268 618 q 367 598 339 618 q 396 542 396 578 q 369 483 396 507 q 306 458 343 458 z "},"À":{"ha":835,"x_min":-28,"x_max":863,"o":"m 569 38 q 606 75 606 38 q 590 125 606 99 l 522 289 l 200 289 l 135 133 q 122 42 106 58 q 146 36 129 35 l 213 40 l 213 0 l -28 0 l -28 40 l 8 38 l 14 38 q 61 66 42 38 q 101 144 81 94 l 392 843 l 428 843 l 721 142 q 760 65 740 92 q 810 38 781 38 l 817 38 l 863 40 l 863 0 l 494 0 l 494 40 l 563 38 q 569 38 565 38 m 360 678 l 214 328 l 508 328 l 360 678 m 288 1099 q 274 1117 274 1110 q 301 1139 274 1125 q 346 1153 329 1153 q 371 1149 363 1153 q 403 1118 382 1143 l 535 974 q 560 942 560 946 q 543 931 560 931 q 514 943 526 931 l 288 1099 z "},"Á":{"ha":835,"x_min":-28,"x_max":863,"o":"m 569 38 q 606 75 606 38 q 590 125 606 99 l 522 289 l 200 289 l 135 133 q 122 42 106 58 q 146 36 129 35 l 213 40 l 213 0 l -28 0 l -28 40 l 8 38 l 14 38 q 61 66 42 38 q 101 144 81 94 l 392 843 l 428 843 l 721 142 q 760 65 740 92 q 810 38 781 38 l 817 38 l 863 40 l 863 0 l 494 0 l 494 40 l 563 38 q 569 38 565 38 m 360 678 l 214 328 l 508 328 l 360 678 m 275 956 q 282 968 275 961 l 429 1131 q 463 1164 456 1161 q 481 1165 471 1167 q 517 1158 492 1164 q 551 1149 542 1153 q 560 1133 560 1144 q 551 1117 560 1122 l 307 949 q 289 944 303 944 q 275 956 275 944 z "},"Â":{"ha":835,"x_min":-28,"x_max":863,"o":"m 569 38 q 606 75 606 38 q 590 125 606 99 l 522 289 l 200 289 l 135 133 q 122 42 106 58 q 146 36 129 35 l 213 40 l 213 0 l -28 0 l -28 40 l 8 38 l 14 38 q 61 66 42 38 q 101 144 81 94 l 392 843 l 428 843 l 721 142 q 760 65 740 92 q 810 38 781 38 l 817 38 l 863 40 l 863 0 l 494 0 l 494 40 l 563 38 q 569 38 565 38 m 360 678 l 214 328 l 508 328 l 360 678 m 200 921 q 215 939 200 926 q 258 976 229 951 q 310 1025 286 1000 l 376 1092 q 417 1126 411 1126 q 457 1092 422 1126 l 524 1025 q 576 976 547 1000 q 619 939 604 951 q 633 921 633 926 q 621 910 633 910 q 582 926 608 910 l 417 1029 l 251 926 q 213 910 225 910 q 200 921 200 910 z "},"Ã":{"ha":835,"x_min":-28,"x_max":863,"o":"m 569 38 q 606 75 606 38 q 590 125 606 99 l 522 289 l 200 289 l 135 133 q 122 42 106 58 q 146 36 129 35 l 213 40 l 213 0 l -28 0 l -28 40 l 8 38 l 14 38 q 61 66 42 38 q 101 144 81 94 l 392 843 l 428 843 l 721 142 q 760 65 740 92 q 810 38 781 38 l 817 38 l 863 40 l 863 0 l 494 0 l 494 40 l 563 38 q 569 38 565 38 m 360 678 l 214 328 l 508 328 l 360 678 m 246 975 l 218 975 q 244 1064 218 1026 q 303 1101 269 1101 q 426 1072 338 1101 q 538 1042 515 1042 q 574 1058 561 1042 q 588 1100 588 1075 l 615 1100 q 590 1011 615 1049 q 529 974 564 974 q 406 1003 494 974 q 295 1033 318 1033 q 259 1017 272 1033 q 246 975 246 1000 z "},"Ä":{"ha":835,"x_min":-28,"x_max":863,"o":"m 569 38 q 606 75 606 38 q 590 125 606 99 l 522 289 l 200 289 l 135 133 q 122 42 106 58 q 146 36 129 35 l 213 40 l 213 0 l -28 0 l -28 40 l 8 38 l 14 38 q 61 66 42 38 q 101 144 81 94 l 392 843 l 428 843 l 721 142 q 760 65 740 92 q 810 38 781 38 l 817 38 l 863 40 l 863 0 l 494 0 l 494 40 l 563 38 q 569 38 565 38 m 360 678 l 214 328 l 508 328 l 360 678 m 228 987 q 217 996 228 987 q 207 1035 207 1006 q 228 1083 207 1064 q 281 1103 250 1103 q 335 1083 313 1103 q 357 1035 357 1064 q 336 987 357 1006 q 282 968 315 968 q 228 987 249 968 m 499 987 q 488 996 499 987 q 478 1035 478 1006 q 499 1083 478 1064 q 552 1103 521 1103 q 606 1083 583 1103 q 628 1035 628 1064 q 607 987 628 1006 q 553 968 586 968 q 499 987 519 968 z "},"Å":{"ha":835,"x_min":-28,"x_max":863,"o":"m 569 38 q 606 75 606 38 q 590 125 606 99 l 522 289 l 200 289 l 135 133 q 122 42 106 58 q 146 36 129 35 l 213 40 l 213 0 l -28 0 l -28 40 l 8 38 q 14 38 11 38 q 58 63 38 38 q 101 144 78 88 l 392 843 l 428 843 l 721 142 q 763 60 744 82 q 810 38 782 38 q 817 38 813 38 l 863 40 l 863 0 l 494 0 l 494 40 l 563 38 q 569 38 565 38 m 360 678 l 214 328 l 508 328 l 360 678 m 417 911 q 392 911 417 911 q 335 944 368 911 q 301 1024 301 976 q 335 1105 301 1072 q 418 1138 369 1138 q 500 1106 467 1138 q 533 1025 533 1074 q 499 944 533 976 q 417 911 465 911 m 376 1069 q 368 1059 376 1069 q 360 1025 360 1050 q 376 981 360 1000 q 417 961 393 961 q 458 981 440 961 q 475 1025 475 1000 q 458 1069 475 1050 q 417 1088 440 1088 q 376 1069 393 1088 z "},"Æ":{"ha":1224,"x_min":7,"x_max":1150,"o":"m 250 0 l 7 0 l 7 42 l 50 38 q 85 53 68 35 q 133 119 103 71 l 521 754 q 520 777 528 767 q 500 788 513 788 l 429 785 l 429 829 l 1075 829 q 1122 832 1103 829 l 1122 615 l 1086 615 q 1038 748 1086 706 q 889 790 990 790 l 661 790 l 724 450 l 839 450 q 915 490 885 450 q 944 592 944 529 l 981 592 l 981 271 l 944 271 q 915 373 944 333 q 839 413 885 413 l 729 413 l 796 64 q 825 38 803 38 l 917 38 q 1113 238 1113 38 l 1150 238 l 1150 -4 q 1028 0 1100 0 l 549 0 l 549 42 l 628 38 q 653 47 644 36 q 658 72 661 58 l 618 289 l 276 289 l 171 111 q 179 38 128 33 l 250 42 l 250 0 m 538 715 l 299 328 l 610 328 l 538 715 z "},"Ç":{"ha":843,"x_min":63,"x_max":781,"o":"m 472 -14 q 172 99 282 -14 q 63 413 63 213 q 173 728 63 614 q 479 843 283 843 q 574 835 539 843 q 703 792 610 828 q 768 783 728 783 q 763 698 763 732 q 764 650 764 664 l 764 631 q 768 601 764 606 l 735 601 q 640 748 715 688 q 472 808 565 808 q 276 699 349 808 q 204 414 204 590 q 280 131 204 238 q 479 24 356 24 q 649 83 575 24 q 742 232 722 142 l 781 232 l 778 203 l 775 169 q 772 99 772 125 q 776 49 772 74 l 768 49 q 672 28 735 49 l 621 11 l 569 -3 q 472 -14 510 -14 m 349 -275 l 358 -242 q 407 -260 375 -260 q 462 -238 439 -260 q 485 -186 485 -217 q 438 -131 485 -156 l 406 -111 q 390 -90 390 -100 q 399 -72 390 -81 l 456 0 l 501 0 l 464 -60 q 456 -86 456 -74 q 515 -112 456 -101 q 556 -131 538 -117 q 575 -169 575 -144 q 541 -263 575 -229 q 445 -297 507 -297 q 349 -275 383 -297 z "},"È":{"ha":782,"x_min":69,"x_max":721,"o":"m 599 0 l 69 0 l 69 42 l 125 38 q 150 68 150 38 l 150 761 q 142 783 150 774 q 122 790 135 792 l 69 788 l 69 829 l 656 829 q 679 831 675 829 l 679 615 l 642 615 q 595 749 642 708 q 444 790 549 790 l 296 790 q 279 771 279 790 l 279 451 l 410 451 q 486 489 457 451 q 515 592 515 526 l 553 592 l 553 271 l 515 271 q 484 372 515 332 q 410 413 453 413 l 279 413 l 279 57 q 296 39 279 39 l 490 39 q 634 93 585 39 q 683 249 683 147 l 721 249 l 721 -4 q 599 0 689 0 m 267 1099 q 253 1117 253 1110 q 281 1139 253 1125 q 325 1153 308 1153 q 350 1149 342 1153 q 382 1118 361 1143 l 514 974 q 539 942 539 946 q 522 931 539 931 q 493 943 506 931 l 267 1099 z "},"É":{"ha":782,"x_min":69,"x_max":721,"o":"m 599 0 l 69 0 l 69 42 l 125 38 q 150 68 150 38 l 150 761 q 142 783 150 774 q 122 790 135 792 l 69 788 l 69 829 l 656 829 q 679 831 675 829 l 679 615 l 642 615 q 595 749 642 708 q 444 790 549 790 l 296 790 q 279 771 279 790 l 279 451 l 410 451 q 486 489 457 451 q 515 592 515 526 l 553 592 l 553 271 l 515 271 q 484 372 515 332 q 410 413 453 413 l 279 413 l 279 57 q 296 39 279 39 l 490 39 q 634 93 585 39 q 683 249 683 147 l 721 249 l 721 -4 q 599 0 689 0 m 304 956 q 311 968 304 961 l 458 1131 q 492 1164 485 1161 q 510 1165 500 1167 q 546 1158 521 1164 q 580 1149 571 1153 q 589 1133 589 1144 q 581 1117 589 1122 l 336 949 q 318 944 332 944 q 304 956 304 944 z "},"Ê":{"ha":782,"x_min":69,"x_max":721,"o":"m 599 0 l 69 0 l 69 42 l 125 38 q 150 68 150 38 l 150 761 q 142 783 150 774 q 122 790 135 792 l 69 788 l 69 829 l 656 829 q 679 831 675 829 l 679 615 l 642 615 q 595 749 642 708 q 444 790 549 790 l 296 790 q 279 771 279 790 l 279 451 l 410 451 q 486 489 457 451 q 515 592 515 526 l 553 592 l 553 271 l 515 271 q 484 372 515 332 q 410 413 453 413 l 279 413 l 279 57 q 296 39 279 39 l 490 39 q 634 93 585 39 q 683 249 683 147 l 721 249 l 721 -4 q 599 0 689 0 m 174 921 q 188 939 174 926 q 231 976 203 951 q 283 1025 260 1000 l 350 1092 q 390 1126 385 1126 q 431 1092 396 1126 l 497 1025 q 549 976 521 1000 q 592 939 578 951 q 607 921 607 926 q 594 910 607 910 q 556 926 582 910 l 390 1029 l 225 926 q 186 910 199 910 q 174 921 174 910 z "},"Ë":{"ha":782,"x_min":69,"x_max":721,"o":"m 599 0 l 69 0 l 69 42 l 125 38 q 150 68 150 38 l 150 761 q 142 783 150 774 q 122 790 135 792 l 69 788 l 69 829 l 656 829 q 679 831 675 829 l 679 615 l 642 615 q 595 749 642 708 q 444 790 549 790 l 296 790 q 279 771 279 790 l 279 451 l 410 451 q 486 489 457 451 q 515 592 515 526 l 553 592 l 553 271 l 515 271 q 484 372 515 332 q 410 413 453 413 l 279 413 l 279 57 q 296 39 279 39 l 490 39 q 634 93 585 39 q 683 249 683 147 l 721 249 l 721 -4 q 599 0 689 0 m 226 987 q 216 996 226 987 q 206 1035 206 1006 q 227 1083 206 1064 q 280 1103 249 1103 q 333 1083 311 1103 q 356 1035 356 1064 q 335 987 356 1006 q 281 968 314 968 q 226 987 247 968 m 497 987 q 487 996 497 987 q 476 1035 476 1006 q 498 1083 476 1064 q 551 1103 519 1103 q 604 1083 582 1103 q 626 1035 626 1064 q 606 987 626 1006 q 551 968 585 968 q 497 987 518 968 z "},"Ì":{"ha":431,"x_min":69,"x_max":363,"o":"m 361 0 l 69 0 l 69 40 l 124 38 q 150 68 150 38 l 150 761 q 143 783 150 774 q 124 790 136 792 l 69 788 l 69 829 l 361 829 l 361 788 l 307 790 q 287 783 294 792 q 279 761 279 774 l 279 68 q 307 38 279 38 l 361 40 l 361 0 m 90 1099 q 76 1117 76 1110 q 104 1139 76 1125 q 149 1153 132 1153 q 174 1149 165 1153 q 206 1118 185 1143 l 338 974 q 363 942 363 946 q 346 931 363 931 q 317 943 329 931 l 90 1099 z "},"Í":{"ha":431,"x_min":69,"x_max":404,"o":"m 361 0 l 69 0 l 69 40 l 124 38 q 150 68 150 38 l 150 761 q 143 783 150 774 q 124 790 136 792 l 69 788 l 69 829 l 361 829 l 361 788 l 307 790 q 287 783 294 792 q 279 761 279 774 l 279 68 q 307 38 279 38 l 361 40 l 361 0 m 119 956 q 126 968 119 961 l 274 1131 q 308 1164 300 1161 q 326 1165 315 1167 q 361 1158 336 1164 q 395 1149 386 1153 q 404 1133 404 1144 q 396 1117 404 1122 l 151 949 q 133 944 147 944 q 119 956 119 944 z "},"Î":{"ha":431,"x_min":3,"x_max":436,"o":"m 361 0 l 69 0 l 69 40 l 124 38 q 150 68 150 38 l 150 761 q 143 783 150 774 q 124 790 136 792 l 69 788 l 69 829 l 361 829 l 361 788 l 307 790 q 287 783 294 792 q 279 761 279 774 l 279 68 q 307 38 279 38 l 361 40 l 361 0 m 3 921 q 17 939 3 926 q 60 976 32 951 q 113 1025 89 1000 l 179 1092 q 219 1126 214 1126 q 260 1092 225 1126 l 326 1025 q 378 976 350 1000 q 422 939 407 951 q 436 921 436 926 q 424 910 436 910 q 385 926 411 910 l 219 1029 l 54 926 q 15 910 28 910 q 3 921 3 910 z "},"Ï":{"ha":431,"x_min":10,"x_max":431,"o":"m 361 0 l 69 0 l 69 40 l 124 38 q 150 68 150 38 l 150 761 q 143 783 150 774 q 124 790 136 792 l 69 788 l 69 829 l 361 829 l 361 788 l 307 790 q 287 783 294 792 q 279 761 279 774 l 279 68 q 307 38 279 38 l 361 40 l 361 0 m 31 987 q 20 996 31 987 q 10 1035 10 1006 q 31 1083 10 1064 q 84 1103 53 1103 q 138 1083 115 1103 q 160 1035 160 1064 q 139 987 160 1006 q 85 968 118 968 q 31 987 51 968 m 301 987 q 291 996 301 987 q 281 1035 281 1006 q 302 1083 281 1064 q 355 1103 324 1103 q 408 1083 386 1103 q 431 1035 431 1064 q 410 987 431 1006 q 356 968 389 968 q 301 987 322 968 z "},"Ð":{"ha":876,"x_min":58,"x_max":821,"o":"m 154 407 l 58 407 l 58 457 l 154 457 l 154 761 q 128 790 154 790 l 74 788 l 74 829 l 386 829 q 715 733 608 829 q 821 415 821 636 q 403 0 821 0 l 74 0 l 74 40 l 133 38 q 154 68 154 38 l 154 407 m 283 407 l 283 57 q 300 39 283 39 l 363 39 q 607 124 535 39 q 679 414 679 210 q 607 704 679 618 q 363 790 535 790 l 300 790 q 283 772 283 790 l 283 457 l 543 457 l 543 407 l 283 407 z "},"Ñ":{"ha":919,"x_min":63,"x_max":857,"o":"m 286 0 l 63 0 l 63 40 l 117 38 q 144 68 144 38 l 144 761 q 137 783 144 774 q 117 790 129 792 l 63 788 l 63 829 l 278 829 l 729 214 l 729 763 q 706 790 729 790 l 701 790 l 633 788 l 633 829 l 857 829 l 857 788 l 803 790 l 800 790 q 776 761 776 790 l 776 -8 l 735 -8 l 192 729 l 192 68 q 218 38 192 38 l 286 40 l 286 0 m 317 975 l 289 975 q 315 1064 289 1026 q 374 1101 340 1101 q 497 1072 408 1101 q 609 1042 586 1042 q 645 1058 632 1042 q 658 1100 658 1075 l 686 1100 q 660 1011 686 1049 q 600 974 635 974 q 478 1003 565 974 q 367 1033 390 1033 q 330 1017 343 1033 q 317 975 317 1000 z "},"Ò":{"ha":931,"x_min":63,"x_max":868,"o":"m 154 115 q 63 415 63 217 q 154 715 63 614 q 298 817 222 792 q 465 843 374 843 q 776 715 661 843 q 868 415 868 614 q 776 115 868 217 q 465 -14 660 -14 q 299 13 375 -14 q 154 115 222 39 m 465 806 q 398 806 465 806 q 267 714 331 806 q 204 415 204 622 q 267 115 204 207 q 465 24 331 24 q 663 115 600 24 q 726 415 726 207 q 663 714 726 622 q 465 806 600 806 m 336 1099 q 322 1117 322 1110 q 350 1139 322 1125 q 394 1153 378 1153 q 419 1149 411 1153 q 451 1118 431 1143 l 583 974 q 608 942 608 946 q 592 931 608 931 q 563 943 575 931 l 336 1099 z "},"Ó":{"ha":931,"x_min":63,"x_max":868,"o":"m 154 115 q 63 415 63 217 q 154 715 63 614 q 298 817 222 792 q 465 843 374 843 q 776 715 661 843 q 868 415 868 614 q 776 115 868 217 q 465 -14 660 -14 q 299 13 375 -14 q 154 115 222 39 m 465 806 q 398 806 465 806 q 267 714 331 806 q 204 415 204 622 q 267 115 204 207 q 465 24 331 24 q 663 115 600 24 q 726 415 726 207 q 663 714 726 622 q 465 806 600 806 m 336 956 q 343 968 336 961 l 490 1131 q 524 1164 517 1161 q 542 1165 532 1167 q 578 1158 553 1164 q 612 1149 603 1153 q 621 1133 621 1144 q 613 1117 621 1122 l 368 949 q 350 944 364 944 q 336 956 336 944 z "},"Ô":{"ha":931,"x_min":63,"x_max":868,"o":"m 154 115 q 63 415 63 217 q 154 715 63 614 q 298 817 222 792 q 465 843 374 843 q 776 715 661 843 q 868 415 868 614 q 776 115 868 217 q 465 -14 660 -14 q 299 13 375 -14 q 154 115 222 39 m 465 806 q 398 806 465 806 q 267 714 331 806 q 204 415 204 622 q 267 115 204 207 q 465 24 331 24 q 663 115 600 24 q 726 415 726 207 q 663 714 726 622 q 465 806 600 806 m 249 921 q 263 939 249 926 q 306 976 278 951 q 358 1025 335 1000 l 425 1092 q 465 1126 460 1126 q 506 1092 471 1126 l 572 1025 q 624 976 596 1000 q 667 939 653 951 q 682 921 682 926 q 669 910 682 910 q 631 926 657 910 l 465 1029 l 300 926 q 261 910 274 910 q 249 921 249 910 z "},"Õ":{"ha":931,"x_min":63,"x_max":868,"o":"m 154 115 q 63 415 63 217 q 154 715 63 614 q 298 817 222 792 q 465 843 374 843 q 776 715 661 843 q 868 415 868 614 q 776 115 868 217 q 465 -14 660 -14 q 299 13 375 -14 q 154 115 222 39 m 465 806 q 398 806 465 806 q 267 714 331 806 q 204 415 204 622 q 267 115 204 207 q 465 24 331 24 q 663 115 600 24 q 726 415 726 207 q 663 714 726 622 q 465 806 600 806 m 294 975 l 267 975 q 292 1064 267 1026 q 352 1101 318 1101 q 475 1072 386 1101 q 587 1042 564 1042 q 623 1058 610 1042 q 636 1100 636 1075 l 664 1100 q 638 1011 664 1049 q 578 974 613 974 q 455 1003 543 974 q 344 1033 367 1033 q 308 1017 321 1033 q 294 975 294 1000 z "},"Ö":{"ha":931,"x_min":63,"x_max":868,"o":"m 154 115 q 63 415 63 217 q 154 715 63 614 q 298 817 222 792 q 465 843 374 843 q 776 715 661 843 q 868 415 868 614 q 776 115 868 217 q 465 -14 660 -14 q 299 13 375 -14 q 154 115 222 39 m 465 806 q 398 806 465 806 q 267 714 331 806 q 204 415 204 622 q 267 115 204 207 q 465 24 331 24 q 663 115 600 24 q 726 415 726 207 q 663 714 726 622 q 465 806 600 806 m 275 987 q 265 996 275 987 q 254 1035 254 1006 q 276 1083 254 1064 q 328 1103 297 1103 q 382 1083 360 1103 q 404 1035 404 1064 q 383 987 404 1006 q 329 968 363 968 q 275 987 296 968 m 546 987 q 535 996 546 987 q 525 1035 525 1006 q 547 1083 525 1064 q 599 1103 568 1103 q 653 1083 631 1103 q 675 1035 675 1064 q 654 987 675 1006 q 600 968 633 968 q 546 987 567 968 z "},"×":{"ha":639,"x_min":89,"x_max":550,"o":"m 131 143 l 89 182 l 281 372 l 92 560 l 132 600 l 318 411 l 508 601 l 550 561 l 360 372 l 550 181 l 511 142 l 319 332 l 131 143 z "},"Ø":{"ha":922,"x_min":61,"x_max":869,"o":"m 61 403 q 165 728 61 614 q 465 843 268 843 q 563 835 525 843 q 656 801 600 826 l 743 951 l 794 924 l 706 771 q 869 408 869 653 q 759 96 869 207 q 457 -15 649 -15 q 265 25 354 -15 l 175 -128 l 124 -104 l 217 54 q 61 403 61 158 m 464 806 q 263 710 324 806 q 203 410 203 615 q 256 121 203 206 l 628 753 q 464 806 565 806 m 665 704 l 294 71 q 453 22 354 22 q 664 113 600 22 q 728 414 728 203 q 714 585 728 524 q 665 704 700 647 z "},"Ù":{"ha":904,"x_min":49,"x_max":869,"o":"m 101 790 l 49 788 l 49 829 l 353 829 l 353 788 l 285 790 q 265 783 272 792 q 257 763 257 775 l 257 276 q 322 94 257 160 q 495 29 386 29 q 672 99 604 29 q 739 275 739 169 l 739 761 q 732 783 739 775 q 714 790 725 792 l 646 788 l 646 829 l 869 829 l 869 788 l 815 790 q 795 783 803 792 q 788 763 788 775 l 788 263 q 700 65 788 143 q 478 -14 613 -14 q 218 60 308 -14 q 128 276 128 135 l 128 761 q 120 783 128 774 q 101 790 113 792 m 371 1099 q 357 1117 357 1110 q 385 1139 357 1125 q 429 1153 413 1153 q 454 1149 446 1153 q 486 1118 465 1143 l 618 974 q 643 942 643 946 q 626 931 643 931 q 597 943 610 931 l 371 1099 z "},"Ú":{"ha":904,"x_min":49,"x_max":869,"o":"m 101 790 l 49 788 l 49 829 l 353 829 l 353 788 l 285 790 q 265 783 272 792 q 257 763 257 775 l 257 276 q 322 94 257 160 q 495 29 386 29 q 672 99 604 29 q 739 275 739 169 l 739 761 q 732 783 739 775 q 714 790 725 792 l 646 788 l 646 829 l 869 829 l 869 788 l 815 790 q 795 783 803 792 q 788 763 788 775 l 788 263 q 700 65 788 143 q 478 -14 613 -14 q 218 60 308 -14 q 128 276 128 135 l 128 761 q 120 783 128 774 q 101 790 113 792 m 393 956 q 400 968 393 961 l 547 1131 q 581 1164 574 1161 q 599 1165 589 1167 q 635 1158 610 1164 q 669 1149 660 1153 q 678 1133 678 1144 q 669 1117 678 1122 l 425 949 q 407 944 421 944 q 393 956 393 944 z "},"Û":{"ha":904,"x_min":49,"x_max":869,"o":"m 101 790 l 49 788 l 49 829 l 353 829 l 353 788 l 285 790 q 265 783 272 792 q 257 763 257 775 l 257 276 q 322 94 257 160 q 495 29 386 29 q 672 99 604 29 q 739 275 739 169 l 739 761 q 732 783 739 775 q 714 790 725 792 l 646 788 l 646 829 l 869 829 l 869 788 l 815 790 q 795 783 803 792 q 788 763 788 775 l 788 263 q 700 65 788 143 q 478 -14 613 -14 q 218 60 308 -14 q 128 276 128 135 l 128 761 q 120 783 128 774 q 101 790 113 792 m 288 921 q 302 939 288 926 q 345 976 317 951 q 397 1025 374 1000 l 464 1092 q 504 1126 499 1126 q 544 1092 510 1126 l 611 1025 q 663 976 635 1000 q 706 939 692 951 q 721 921 721 926 q 708 910 721 910 q 669 926 696 910 l 504 1029 l 339 926 q 300 910 313 910 q 288 921 288 910 z "},"Ü":{"ha":904,"x_min":49,"x_max":869,"o":"m 101 790 l 49 788 l 49 829 l 353 829 l 353 788 l 285 790 q 265 783 272 792 q 257 763 257 775 l 257 276 q 322 94 257 160 q 495 29 386 29 q 672 99 604 29 q 739 275 739 169 l 739 761 q 732 783 739 775 q 714 790 725 792 l 646 788 l 646 829 l 869 829 l 869 788 l 815 790 q 795 783 803 792 q 788 763 788 775 l 788 263 q 700 65 788 143 q 478 -14 613 -14 q 218 60 308 -14 q 128 276 128 135 l 128 761 q 120 783 128 774 q 101 790 113 792 m 307 987 q 297 996 307 987 q 286 1035 286 1006 q 308 1083 286 1064 q 360 1103 329 1103 q 414 1083 392 1103 q 436 1035 436 1064 q 415 987 436 1006 q 361 968 394 968 q 307 987 328 968 m 578 987 q 567 996 578 987 q 557 1035 557 1006 q 578 1083 557 1064 q 631 1103 600 1103 q 685 1083 663 1103 q 707 1035 707 1064 q 686 987 707 1006 q 632 968 665 968 q 578 987 599 968 z "},"Ý":{"ha":704,"x_min":-7,"x_max":718,"o":"m 31 790 l -7 788 l -7 829 l 300 829 l 300 788 l 226 790 q 210 780 213 792 q 217 757 208 768 l 407 440 l 589 763 q 579 790 603 790 l 507 788 l 507 829 l 718 829 l 718 788 l 678 790 l 676 790 q 638 761 654 790 l 435 400 l 435 67 q 463 38 435 38 l 529 40 l 529 0 l 211 0 l 211 40 l 279 38 q 306 68 306 38 l 306 365 l 65 764 q 32 790 51 790 l 31 790 m 285 956 q 292 968 285 961 l 439 1131 q 473 1164 465 1161 q 491 1165 481 1167 q 526 1158 501 1164 q 560 1149 551 1153 q 569 1134 569 1144 q 561 1117 569 1124 l 317 949 q 299 944 313 944 q 285 956 285 944 z "},"Þ":{"ha":728,"x_min":54,"x_max":664,"o":"m 360 0 l 54 0 l 54 40 l 108 38 q 128 45 121 36 q 135 68 135 54 l 135 761 q 108 790 135 790 l 54 788 l 54 829 l 360 829 l 360 788 l 292 790 q 272 782 279 790 q 264 761 264 774 l 264 689 l 378 689 q 594 635 525 689 q 664 467 664 581 q 596 290 664 354 q 407 225 528 225 l 264 225 l 264 68 q 270 44 264 53 q 292 38 276 36 l 360 40 l 360 0 m 264 654 l 264 279 q 282 261 264 261 l 378 261 q 485 320 440 261 q 531 465 531 379 q 483 602 531 550 q 356 654 436 654 l 264 654 z "},"ß":{"ha":733,"x_min":49,"x_max":735,"o":"m 319 0 l 49 0 l 49 40 l 99 38 q 117 67 117 38 l 117 711 q 357 1024 117 1024 q 540 981 471 1024 q 608 864 608 938 q 575 778 608 814 q 490 713 542 743 q 419 659 438 683 q 401 593 401 635 q 490 472 401 533 l 611 385 q 735 198 735 299 q 665 43 735 97 q 483 -11 594 -11 q 391 17 435 -11 q 347 92 347 44 q 393 140 347 140 q 447 85 442 140 q 466 47 450 64 q 514 29 482 29 q 625 138 625 29 q 521 304 625 228 l 401 390 q 292 536 292 471 q 315 615 292 582 q 396 688 338 647 q 476 763 454 729 q 499 854 499 796 q 461 951 499 913 q 359 989 424 989 q 255 947 294 989 q 215 835 215 906 q 226 722 215 806 q 236 603 236 639 l 236 67 q 256 38 236 38 l 319 40 l 319 0 z "},"à":{"ha":625,"x_min":38,"x_max":597,"o":"m 38 146 q 126 307 38 256 q 408 358 214 358 l 408 439 q 378 531 408 501 q 286 560 349 560 q 182 499 182 560 q 189 474 182 488 q 196 443 196 460 q 177 415 196 426 q 129 403 158 403 q 68 465 68 403 q 123 563 68 528 q 293 597 178 597 q 468 550 408 597 q 528 401 528 503 l 528 60 q 546 33 528 33 l 597 36 l 597 0 l 400 0 q 406 51 403 18 l 408 106 q 221 -7 351 -7 q 38 146 38 -7 m 164 156 q 189 73 164 103 q 258 43 214 43 q 365 99 322 43 q 408 240 408 154 l 408 321 q 219 283 275 321 q 164 156 164 244 m 188 853 q 174 872 174 864 q 201 893 174 879 q 246 907 229 907 q 271 903 263 907 q 303 872 282 897 l 435 728 q 460 696 460 700 q 443 685 460 685 q 414 697 426 685 l 188 853 z "},"á":{"ha":625,"x_min":38,"x_max":597,"o":"m 38 146 q 126 307 38 256 q 408 358 214 358 l 408 439 q 378 531 408 501 q 286 560 349 560 q 182 499 182 560 q 189 474 182 488 q 196 443 196 460 q 177 415 196 426 q 129 403 158 403 q 68 465 68 403 q 123 563 68 528 q 293 597 178 597 q 468 550 408 597 q 528 401 528 503 l 528 60 q 546 33 528 33 l 597 36 l 597 0 l 400 0 q 406 51 403 18 l 408 106 q 221 -7 351 -7 q 38 146 38 -7 m 164 156 q 189 73 164 103 q 258 43 214 43 q 365 99 322 43 q 408 240 408 154 l 408 321 q 219 283 275 321 q 164 156 164 244 m 181 710 q 188 722 181 715 l 335 885 q 369 918 361 915 q 387 919 376 921 q 422 913 397 918 q 456 903 447 907 q 465 888 465 899 q 457 871 465 878 l 213 703 q 194 699 208 699 q 181 710 181 699 z "},"â":{"ha":625,"x_min":38,"x_max":597,"o":"m 38 146 q 126 307 38 256 q 408 358 214 358 l 408 439 q 378 531 408 501 q 286 560 349 560 q 182 499 182 560 q 189 474 182 488 q 196 443 196 460 q 177 415 196 426 q 129 403 158 403 q 68 465 68 403 q 123 563 68 528 q 293 597 178 597 q 468 550 408 597 q 528 401 528 503 l 528 60 q 546 33 528 33 l 597 36 l 597 0 l 400 0 q 406 51 403 18 l 408 106 q 221 -7 351 -7 q 38 146 38 -7 m 164 156 q 189 73 164 103 q 258 43 214 43 q 365 99 322 43 q 408 240 408 154 l 408 321 q 219 283 275 321 q 164 156 164 244 m 96 675 q 110 693 96 681 q 153 730 125 706 q 206 779 182 754 l 272 846 q 313 881 307 881 q 353 846 318 881 l 419 779 q 472 730 443 754 q 515 693 500 706 q 529 675 529 681 q 517 664 529 664 q 478 681 504 664 l 313 783 l 147 681 q 108 664 121 664 q 96 675 96 664 z "},"ã":{"ha":625,"x_min":38,"x_max":597,"o":"m 38 146 q 126 307 38 256 q 408 358 214 358 l 408 439 q 378 531 408 501 q 286 560 349 560 q 182 499 182 560 q 189 474 182 488 q 196 443 196 460 q 177 415 196 426 q 129 403 158 403 q 68 465 68 403 q 123 563 68 528 q 293 597 178 597 q 468 550 408 597 q 528 401 528 503 l 528 60 q 546 33 528 33 l 597 36 l 597 0 l 400 0 q 406 51 403 18 l 408 106 q 221 -7 351 -7 q 38 146 38 -7 m 164 156 q 189 73 164 103 q 258 43 214 43 q 365 99 322 43 q 408 240 408 154 l 408 321 q 219 283 275 321 q 164 156 164 244 m 142 729 l 114 729 q 140 818 114 781 q 199 856 165 856 q 322 826 233 856 q 434 796 411 796 q 470 813 457 796 q 483 854 483 829 l 511 854 q 485 765 511 803 q 426 728 460 728 q 303 758 392 728 q 191 788 214 788 q 155 771 168 788 q 142 729 142 754 z "},"ä":{"ha":625,"x_min":38,"x_max":597,"o":"m 38 146 q 126 307 38 256 q 408 358 214 358 l 408 439 q 378 531 408 501 q 286 560 349 560 q 182 499 182 560 q 189 474 182 488 q 196 443 196 460 q 177 415 196 426 q 129 403 158 403 q 68 465 68 403 q 123 563 68 528 q 293 597 178 597 q 468 550 408 597 q 528 401 528 503 l 528 60 q 546 33 528 33 l 597 36 l 597 0 l 400 0 q 406 51 403 18 l 408 106 q 221 -7 351 -7 q 38 146 38 -7 m 164 156 q 189 73 164 103 q 258 43 214 43 q 365 99 322 43 q 408 240 408 154 l 408 321 q 219 283 275 321 q 164 156 164 244 m 128 741 q 117 750 128 741 q 107 789 107 760 q 128 838 107 818 q 181 857 150 857 q 235 838 213 857 q 257 789 257 818 q 236 741 257 760 q 182 722 215 722 q 128 741 149 722 m 399 741 q 388 750 399 741 q 378 789 378 760 q 399 838 378 818 q 452 857 421 857 q 506 838 483 857 q 528 789 528 818 q 507 741 528 760 q 453 722 486 722 q 399 741 419 722 z "},"å":{"ha":625,"x_min":38,"x_max":597,"o":"m 38 146 q 126 307 38 256 q 408 358 214 358 l 408 439 q 378 531 408 501 q 286 560 349 560 q 182 499 182 560 q 189 474 182 488 q 196 443 196 460 q 177 415 196 426 q 129 403 158 403 q 68 465 68 403 q 123 563 68 528 q 293 597 178 597 q 468 550 408 597 q 528 401 528 503 l 528 60 q 546 33 528 33 l 597 36 l 597 0 l 400 0 q 406 51 403 18 l 408 106 q 221 -7 351 -7 q 38 146 38 -7 m 164 156 q 189 73 164 103 q 258 43 214 43 q 365 99 322 43 q 408 240 408 154 l 408 321 q 219 283 275 321 q 164 156 164 244 m 294 665 q 270 665 294 665 q 213 698 246 665 q 179 778 179 731 q 213 859 179 826 q 296 892 247 892 q 378 860 344 892 q 411 779 411 828 q 377 698 411 731 q 294 665 343 665 m 254 823 q 246 814 254 823 q 238 779 238 804 q 254 735 238 754 q 294 715 271 715 q 335 735 318 715 q 353 779 353 754 q 335 823 353 804 q 294 842 318 842 q 254 823 271 842 z "},"æ":{"ha":1000,"x_min":38,"x_max":938,"o":"m 182 499 l 196 446 q 176 415 196 426 q 131 403 157 403 q 68 466 68 403 q 124 563 68 529 q 292 597 181 597 q 488 528 438 597 q 689 597 563 597 q 938 301 938 597 l 529 301 q 576 104 529 176 q 714 32 624 32 q 823 67 768 32 q 903 153 878 101 l 936 128 q 844 24 907 63 q 706 -14 781 -14 q 442 121 507 -14 q 239 -7 375 -7 q 92 28 147 -7 q 38 136 38 64 q 126 292 38 247 q 408 336 215 336 l 408 435 q 381 528 408 497 q 292 560 354 560 q 182 499 182 560 m 164 129 q 265 39 164 39 q 365 98 322 39 q 408 246 408 157 l 408 301 q 222 258 281 301 q 164 129 164 215 m 529 336 l 806 336 q 819 375 819 336 q 696 560 819 560 q 569 505 610 560 q 529 336 529 450 z "},"ç":{"ha":590,"x_min":50,"x_max":564,"o":"m 332 -14 q 124 65 199 -14 q 50 286 50 144 q 125 513 50 428 q 322 597 200 597 q 474 556 411 597 q 538 454 538 515 q 520 406 538 425 q 478 386 503 386 q 422 425 422 386 q 428 456 422 439 q 435 490 435 474 q 402 542 435 524 q 322 560 369 560 q 213 496 247 560 q 179 286 179 432 q 340 24 179 24 q 458 67 403 24 q 529 172 513 110 l 564 149 q 332 -14 514 -14 m 210 -275 l 219 -242 q 268 -260 236 -260 q 323 -238 300 -260 q 346 -186 346 -217 q 299 -131 346 -156 l 267 -111 q 251 -90 251 -100 q 260 -72 251 -81 l 317 0 l 363 0 l 325 -60 q 317 -86 317 -74 q 376 -112 317 -101 q 417 -131 399 -117 q 436 -169 436 -144 q 402 -263 436 -229 q 306 -297 368 -297 q 210 -275 244 -297 z "},"è":{"ha":624,"x_min":49,"x_max":575,"o":"m 49 290 q 119 519 49 442 q 328 597 190 597 q 505 527 438 597 q 575 335 572 457 l 575 294 l 175 294 q 350 32 175 33 q 467 67 419 32 q 538 153 515 101 l 569 129 q 476 24 542 63 q 331 -14 410 -14 q 49 290 49 -14 m 176 329 l 429 329 q 457 375 457 329 q 427 515 457 469 q 324 560 397 560 q 213 496 250 560 q 176 329 176 432 m 189 853 q 175 872 175 864 q 203 893 175 879 q 247 907 231 907 q 272 903 264 907 q 304 872 283 897 l 436 728 q 461 696 461 700 q 444 685 461 685 q 415 697 428 685 l 189 853 z "},"é":{"ha":624,"x_min":49,"x_max":575,"o":"m 49 290 q 119 519 49 442 q 328 597 190 597 q 505 527 438 597 q 575 335 572 457 l 575 294 l 175 294 q 350 32 175 33 q 467 67 419 32 q 538 153 515 101 l 569 129 q 476 24 542 63 q 331 -14 410 -14 q 49 290 49 -14 m 176 329 l 429 329 q 457 375 457 329 q 427 515 457 469 q 324 560 397 560 q 213 496 250 560 q 176 329 176 432 m 196 710 q 203 722 196 715 l 350 885 q 384 918 376 915 q 402 919 392 921 q 438 913 413 918 q 472 903 463 907 q 481 888 481 899 q 472 871 481 878 l 228 703 q 210 699 224 699 q 196 710 196 699 z "},"ê":{"ha":624,"x_min":49,"x_max":575,"o":"m 49 290 q 119 519 49 442 q 328 597 190 597 q 505 527 438 597 q 575 335 572 457 l 575 294 l 175 294 q 350 32 175 33 q 467 67 419 32 q 538 153 515 101 l 569 129 q 476 24 542 63 q 331 -14 410 -14 q 49 290 49 -14 m 176 329 l 429 329 q 457 375 457 329 q 427 515 457 469 q 324 560 397 560 q 213 496 250 560 q 176 329 176 432 m 94 675 q 109 693 94 681 q 152 730 124 706 q 204 779 181 754 l 271 846 q 311 881 306 881 q 351 846 317 881 l 418 779 q 470 730 442 754 q 513 693 499 706 q 528 675 528 681 q 515 664 528 664 q 476 681 503 664 l 311 783 l 146 681 q 107 664 119 664 q 94 675 94 664 z "},"ë":{"ha":624,"x_min":49,"x_max":575,"o":"m 49 290 q 119 519 49 442 q 328 597 190 597 q 505 527 438 597 q 575 335 572 457 l 575 294 l 175 294 q 350 32 175 33 q 467 67 419 32 q 538 153 515 101 l 569 129 q 476 24 542 63 q 331 -14 410 -14 q 49 290 49 -14 m 176 329 l 429 329 q 457 375 457 329 q 427 515 457 469 q 324 560 397 560 q 213 496 250 560 q 176 329 176 432 m 126 741 q 116 750 126 741 q 106 789 106 760 q 127 838 106 818 q 180 857 149 857 q 233 838 211 857 q 256 789 256 818 q 235 741 256 760 q 181 722 214 722 q 126 741 147 722 m 397 741 q 387 750 397 741 q 376 789 376 760 q 398 838 376 818 q 451 857 419 857 q 504 838 482 857 q 526 789 526 818 q 506 741 526 760 q 451 722 485 722 q 397 741 418 722 z "},"ì":{"ha":354,"x_min":21,"x_max":307,"o":"m 35 853 q 21 872 21 864 q 49 893 21 879 q 93 907 76 907 q 118 903 110 907 q 150 872 129 897 l 282 728 q 307 696 307 700 q 290 685 307 685 q 261 697 274 685 l 35 853 m 306 0 l 49 0 l 49 36 l 100 33 q 118 60 118 33 l 118 522 q 101 550 118 546 l 50 547 l 50 583 l 238 583 l 238 60 q 256 33 238 33 l 306 36 l 306 0 z "},"í":{"ha":354,"x_min":49,"x_max":346,"o":"m 306 0 l 49 0 l 49 36 l 100 33 q 118 60 118 33 l 118 522 q 101 550 118 546 l 50 547 l 50 583 l 238 583 l 238 60 q 256 33 238 33 l 306 36 l 306 0 m 61 710 q 68 722 61 715 l 215 885 q 249 918 242 915 q 267 919 257 921 q 303 913 278 918 q 337 903 328 907 q 346 888 346 899 q 338 871 346 878 l 93 703 q 75 699 89 699 q 61 710 61 699 z "},"î":{"ha":354,"x_min":-39,"x_max":394,"o":"m -39 675 q -24 693 -39 681 q 19 730 -10 706 q 71 779 47 754 l 136 846 q 178 881 174 881 q 219 846 182 881 l 285 779 q 337 730 308 754 q 380 693 365 706 q 394 675 394 681 q 382 664 394 664 q 343 681 369 664 l 178 783 l 13 681 q -26 664 -14 664 q -39 675 -39 664 m 306 0 l 49 0 l 49 36 l 100 33 q 118 60 118 33 l 118 522 q 101 550 118 546 l 50 547 l 50 583 l 238 583 l 238 60 q 256 33 238 33 l 306 36 l 306 0 z "},"ï":{"ha":354,"x_min":-33,"x_max":388,"o":"m -12 741 q -23 750 -12 741 q -33 789 -33 760 q -12 838 -33 818 q 41 857 10 857 q 94 838 72 857 q 117 789 117 818 q 96 741 117 760 q 42 722 75 722 q -12 741 8 722 m 306 0 l 49 0 l 49 36 l 100 33 q 118 60 118 33 l 118 522 q 101 550 118 546 l 50 547 l 50 583 l 238 583 l 238 60 q 256 33 238 33 l 306 36 l 306 0 m 258 741 q 248 750 258 741 q 238 789 238 760 q 259 838 238 818 q 312 857 281 857 q 365 838 343 857 q 388 789 388 818 q 367 741 388 760 q 313 722 346 722 q 258 741 279 722 z "},"ð":{"ha":683,"x_min":49,"x_max":635,"o":"m 124 63 q 86 101 124 63 q 49 290 49 140 q 124 518 49 440 q 342 596 199 596 q 410 585 374 596 q 456 560 446 575 q 340 719 413 667 l 194 635 l 174 671 l 307 747 q 156 813 214 813 l 183 843 q 372 785 279 843 l 506 861 l 525 825 l 411 758 q 635 296 635 604 q 558 68 635 151 q 340 -15 482 -15 q 124 63 199 -15 m 339 561 q 293 561 339 561 q 211 503 247 561 q 175 292 175 444 q 213 79 175 139 q 341 19 250 19 q 470 83 432 19 q 508 291 508 146 q 469 499 508 436 q 339 561 431 561 z "},"ñ":{"ha":729,"x_min":49,"x_max":701,"o":"m 319 0 l 49 0 l 49 36 l 100 33 q 118 60 118 38 l 118 522 q 100 550 118 546 l 49 547 l 49 583 l 244 583 q 238 535 238 563 l 238 460 q 321 560 267 524 q 460 597 375 597 q 588 551 544 597 q 632 400 632 504 l 632 60 q 650 33 632 33 l 701 36 l 701 0 l 431 0 l 431 36 l 494 33 q 513 60 513 38 l 513 375 q 496 513 513 474 q 419 553 479 553 q 287 481 336 553 q 238 289 238 408 l 238 60 q 256 33 238 33 l 319 36 l 319 0 m 193 729 l 165 729 q 191 818 165 781 q 251 856 217 856 q 374 826 285 856 q 485 796 463 796 q 522 813 508 796 q 535 854 535 829 l 563 854 q 537 765 563 803 q 476 728 511 728 q 354 758 442 728 q 243 788 267 788 q 206 771 219 788 q 193 729 193 754 z "},"ò":{"ha":656,"x_min":49,"x_max":607,"o":"m 328 -14 q 259 -14 328 -14 q 119 67 190 -14 q 49 292 49 149 q 119 516 49 435 q 328 597 190 597 q 536 516 465 597 q 607 292 607 435 q 536 67 607 149 q 328 -14 465 -14 m 328 560 q 287 560 328 560 q 210 496 246 560 q 175 291 175 432 q 210 87 175 150 q 328 24 246 24 q 445 87 410 24 q 481 291 481 150 q 445 496 481 432 q 328 560 410 560 m 203 853 q 189 872 189 864 q 217 893 189 879 q 261 907 244 907 q 286 903 278 907 q 318 872 297 897 l 450 728 q 475 696 475 700 q 458 685 475 685 q 429 697 442 685 l 203 853 z "},"ó":{"ha":656,"x_min":49,"x_max":607,"o":"m 328 -14 q 259 -14 328 -14 q 119 67 190 -14 q 49 292 49 149 q 119 516 49 435 q 328 597 190 597 q 536 516 465 597 q 607 292 607 435 q 536 67 607 149 q 328 -14 465 -14 m 328 560 q 287 560 328 560 q 210 496 246 560 q 175 291 175 432 q 210 87 175 150 q 328 24 246 24 q 445 87 410 24 q 481 291 481 150 q 445 496 481 432 q 328 560 410 560 m 199 710 q 206 722 199 715 l 353 885 q 387 918 379 915 q 405 919 394 921 q 440 913 415 918 q 474 903 465 907 q 483 888 483 899 q 475 871 483 878 l 231 703 q 213 699 226 699 q 199 710 199 699 z "},"ô":{"ha":656,"x_min":49,"x_max":607,"o":"m 328 -14 q 259 -14 328 -14 q 119 67 190 -14 q 49 292 49 149 q 119 516 49 435 q 328 597 190 597 q 536 516 465 597 q 607 292 607 435 q 536 67 607 149 q 328 -14 465 -14 m 328 560 q 287 560 328 560 q 210 496 246 560 q 175 291 175 432 q 210 87 175 150 q 328 24 246 24 q 445 87 410 24 q 481 291 481 150 q 445 496 481 432 q 328 560 410 560 m 111 675 q 126 693 111 681 q 169 730 140 706 q 221 779 197 754 l 288 846 q 328 881 322 881 q 368 846 333 881 l 435 779 q 487 730 458 754 q 530 693 515 706 q 544 675 544 681 q 532 664 544 664 q 493 681 519 664 l 328 783 l 163 681 q 124 664 136 664 q 111 675 111 664 z "},"õ":{"ha":656,"x_min":49,"x_max":607,"o":"m 328 -14 q 259 -14 328 -14 q 119 67 190 -14 q 49 292 49 149 q 119 516 49 435 q 328 597 190 597 q 536 516 465 597 q 607 292 607 435 q 536 67 607 149 q 328 -14 465 -14 m 328 560 q 287 560 328 560 q 210 496 246 560 q 175 291 175 432 q 210 87 175 150 q 328 24 246 24 q 445 87 410 24 q 481 291 481 150 q 445 496 481 432 q 328 560 410 560 m 157 729 l 129 729 q 155 818 129 781 q 215 856 181 856 q 338 826 249 856 q 449 796 426 796 q 485 813 472 796 q 499 854 499 829 l 526 854 q 501 765 526 803 q 440 728 475 728 q 318 758 406 728 q 207 788 231 788 q 170 771 183 788 q 157 729 157 754 z "},"ö":{"ha":656,"x_min":49,"x_max":607,"o":"m 328 -14 q 259 -14 328 -14 q 119 67 190 -14 q 49 292 49 149 q 119 516 49 435 q 328 597 190 597 q 536 516 465 597 q 607 292 607 435 q 536 67 607 149 q 328 -14 465 -14 m 328 560 q 287 560 328 560 q 210 496 246 560 q 175 291 175 432 q 210 87 175 150 q 328 24 246 24 q 445 87 410 24 q 481 291 481 150 q 445 496 481 432 q 328 560 410 560 m 138 741 q 127 750 138 741 q 117 789 117 760 q 138 838 117 818 q 191 857 160 857 q 244 838 222 857 q 267 789 267 818 q 246 741 267 760 q 192 722 225 722 q 138 741 158 722 m 408 741 q 398 750 408 741 q 388 789 388 760 q 409 838 388 818 q 462 857 431 857 q 515 838 493 857 q 538 789 538 818 q 517 741 538 760 q 463 722 496 722 q 408 741 429 722 z "},"÷":{"ha":639,"x_min":26,"x_max":613,"o":"m 613 346 l 26 346 l 26 403 l 613 403 l 613 346 m 318 69 q 301 69 318 69 q 264 87 285 69 q 243 134 243 104 q 264 183 243 164 q 318 201 285 201 q 373 184 351 201 q 394 136 394 167 q 373 88 394 106 q 318 69 351 69 m 318 540 q 301 540 318 540 q 264 558 285 540 q 243 606 243 575 q 264 655 243 638 q 318 672 285 672 q 373 655 351 672 q 394 607 394 638 q 373 558 394 576 q 318 540 351 540 z "},"ø":{"ha":656,"x_min":49,"x_max":607,"o":"m 49 293 q 119 516 49 435 q 328 597 190 597 q 465 568 403 597 l 539 700 l 586 671 l 513 538 q 607 302 607 456 q 536 67 607 149 q 328 -14 465 -14 q 215 4 265 -14 l 147 -118 l 94 -94 l 164 29 q 49 293 49 106 m 322 560 q 284 560 322 560 q 210 496 246 560 q 175 299 175 432 q 203 100 175 167 l 433 513 q 322 560 399 560 m 464 450 l 240 50 q 328 24 271 24 q 445 87 410 24 q 481 269 481 150 q 464 450 481 389 z "},"ù":{"ha":728,"x_min":28,"x_max":679,"o":"m 78 550 l 28 547 l 28 583 l 215 583 l 215 206 q 232 72 215 111 q 300 32 249 32 q 438 102 386 32 q 490 293 490 172 l 490 521 q 474 550 490 550 l 408 547 l 408 583 l 611 583 l 611 60 q 629 33 611 33 l 679 36 l 679 0 l 482 0 q 490 121 490 19 q 271 -14 433 -14 q 137 38 178 -14 q 96 206 96 89 l 96 522 q 78 550 96 550 m 186 853 q 172 872 172 864 q 200 893 172 879 q 244 907 228 907 q 269 903 261 907 q 301 872 281 897 l 433 728 q 458 696 458 700 q 442 685 458 685 q 413 697 425 685 l 186 853 z "},"ú":{"ha":728,"x_min":28,"x_max":679,"o":"m 78 550 l 28 547 l 28 583 l 215 583 l 215 206 q 232 72 215 111 q 300 32 249 32 q 438 102 386 32 q 490 293 490 172 l 490 521 q 474 550 490 550 l 408 547 l 408 583 l 611 583 l 611 60 q 629 33 611 33 l 679 36 l 679 0 l 482 0 q 490 121 490 19 q 271 -14 433 -14 q 137 38 178 -14 q 96 206 96 89 l 96 522 q 78 550 96 550 m 221 710 q 228 722 221 715 l 375 885 q 409 918 401 915 q 427 919 417 921 q 463 913 438 918 q 497 903 488 907 q 506 888 506 899 q 497 871 506 878 l 253 703 q 235 699 249 699 q 221 710 221 699 z "},"û":{"ha":728,"x_min":28,"x_max":679,"o":"m 78 550 l 28 547 l 28 583 l 215 583 l 215 206 q 232 72 215 111 q 300 32 249 32 q 438 102 386 32 q 490 293 490 172 l 490 521 q 474 550 490 550 l 408 547 l 408 583 l 611 583 l 611 60 q 629 33 611 33 l 679 36 l 679 0 l 482 0 q 490 121 490 19 q 271 -14 433 -14 q 137 38 178 -14 q 96 206 96 89 l 96 522 q 78 550 96 550 m 147 675 q 162 693 147 681 q 205 730 176 706 q 257 779 233 754 l 324 846 q 364 881 358 881 q 404 846 369 881 l 471 779 q 523 730 494 754 q 566 693 551 706 q 581 675 581 681 q 568 664 581 664 q 529 681 556 664 l 364 783 l 199 681 q 160 664 172 664 q 147 675 147 664 z "},"ü":{"ha":728,"x_min":28,"x_max":679,"o":"m 78 550 l 28 547 l 28 583 l 215 583 l 215 206 q 232 72 215 111 q 300 32 249 32 q 438 102 386 32 q 490 293 490 172 l 490 521 q 474 550 490 550 l 408 547 l 408 583 l 611 583 l 611 60 q 629 33 611 33 l 679 36 l 679 0 l 482 0 q 490 121 490 19 q 271 -14 433 -14 q 137 38 178 -14 q 96 206 96 89 l 96 522 q 78 550 96 550 m 154 741 q 144 750 154 741 q 133 789 133 760 q 155 838 133 818 q 208 857 176 857 q 261 838 239 857 q 283 789 283 818 q 263 741 283 760 q 208 722 242 722 q 154 741 175 722 m 425 741 q 415 750 425 741 q 404 789 404 760 q 426 838 404 818 q 478 857 447 857 q 532 838 510 857 q 554 789 554 818 q 533 741 554 760 q 479 722 513 722 q 425 741 446 722 z "},"ý":{"ha":674,"x_min":-18,"x_max":669,"o":"m 50 550 l -18 547 l -18 583 l 286 583 l 286 547 l 224 550 q 208 542 214 550 q 207 526 203 535 l 376 151 l 533 529 q 519 550 542 550 l 454 547 l 454 583 l 669 583 l 669 547 l 613 550 l 610 550 q 575 524 588 550 l 282 -183 q 211 -299 249 -265 q 127 -332 174 -332 q 55 -314 81 -332 q 26 -264 29 -296 q 42 -211 26 -229 q 81 -193 58 -193 q 118 -208 104 -193 q 142 -237 132 -222 q 168 -251 153 -251 q 232 -187 207 -251 l 314 1 l 72 532 q 50 550 64 550 m 253 710 q 260 722 253 715 l 407 885 q 441 918 433 915 q 459 919 449 921 q 494 913 469 918 q 528 903 519 907 q 538 888 538 899 q 529 871 538 878 l 285 703 q 267 699 281 699 q 253 710 253 699 z "},"þ":{"ha":717,"x_min":28,"x_max":638,"o":"m 78 981 l 28 978 l 28 1014 l 221 1014 q 215 943 215 979 l 215 472 q 399 597 258 597 q 638 290 638 597 q 573 62 638 138 q 382 -14 508 -14 q 215 60 256 -14 l 215 -271 q 233 -299 215 -299 l 319 -296 l 319 -332 l 33 -332 l 33 -296 l 78 -299 q 96 -271 96 -297 l 96 953 q 78 981 96 981 m 218 314 l 218 256 q 374 24 218 24 q 482 81 453 24 q 511 291 511 138 q 485 502 511 444 q 382 560 458 560 q 262 492 306 560 q 218 314 218 425 z "},"ÿ":{"ha":674,"x_min":-18,"x_max":669,"o":"m 50 550 l -18 547 l -18 583 l 286 583 l 286 547 l 224 550 q 208 542 214 550 q 207 526 203 535 l 376 151 l 533 529 q 519 550 542 550 l 454 547 l 454 583 l 669 583 l 669 547 l 613 550 l 610 550 q 575 524 588 550 l 282 -183 q 211 -299 249 -265 q 127 -332 174 -332 q 55 -314 81 -332 q 26 -264 29 -296 q 42 -211 26 -229 q 81 -193 58 -193 q 118 -208 104 -193 q 142 -237 132 -222 q 168 -251 153 -251 q 232 -187 207 -251 l 314 1 l 72 532 q 50 550 64 550 m 183 741 q 173 750 183 741 q 163 789 163 760 q 184 838 163 818 q 237 857 206 857 q 290 838 268 857 q 313 789 313 818 q 292 741 313 760 q 238 722 271 722 q 183 741 204 722 m 454 741 q 444 750 454 741 q 433 789 433 760 q 455 838 433 818 q 508 857 476 857 q 561 838 539 857 q 583 789 583 818 q 563 741 583 760 q 508 722 542 722 q 454 741 475 722 z "},"Œ":{"ha":1206,"x_min":64,"x_max":1136,"o":"m 667 0 q 472 -14 590 0 q 169 94 275 -14 q 64 406 64 203 q 476 843 64 843 q 569 836 514 843 q 656 829 624 829 l 1110 829 l 1110 615 l 1072 615 q 1026 750 1072 710 q 875 790 979 790 l 744 790 q 726 771 726 790 l 726 450 l 832 450 q 908 488 878 450 q 939 592 939 526 l 976 592 l 976 271 l 939 271 q 908 372 939 332 q 832 413 876 413 l 726 413 l 726 56 q 744 38 726 38 l 904 38 q 1049 92 1000 38 q 1099 249 1099 147 l 1136 249 l 1136 -4 q 1014 0 1103 0 l 667 0 m 467 807 q 262 713 325 807 q 199 413 199 619 q 261 115 199 206 q 464 25 324 25 q 604 125 604 25 l 604 731 q 564 785 604 763 q 467 807 524 807 z "},"œ":{"ha":1057,"x_min":49,"x_max":1008,"o":"m 317 -14 q 120 68 192 -14 q 49 285 49 150 q 114 509 49 421 q 315 597 179 597 q 543 494 481 597 q 631 573 581 549 q 765 597 681 597 q 944 527 879 597 q 1008 332 1008 457 l 1008 301 l 600 301 q 649 102 600 172 q 789 32 697 32 q 903 70 847 32 q 972 153 958 108 l 1004 129 q 917 26 979 65 q 772 -14 856 -14 q 543 89 626 -14 q 453 8 501 31 q 317 -14 406 -14 m 175 282 q 317 24 175 24 q 447 87 414 24 q 479 296 479 150 q 443 501 479 442 q 315 560 407 560 q 208 492 242 560 q 175 282 175 425 m 600 336 l 874 336 q 890 357 890 336 q 860 513 890 465 q 758 560 829 560 q 600 336 600 560 z "},"Š":{"ha":686,"x_min":67,"x_max":635,"o":"m 67 282 l 101 282 q 357 25 133 25 q 467 71 426 25 q 510 192 508 117 q 372 353 510 299 l 231 410 q 78 613 78 471 q 145 776 78 710 q 335 843 213 843 q 464 819 390 843 l 514 803 q 556 794 535 794 q 592 800 576 794 q 588 697 588 767 q 596 603 588 628 l 560 603 q 501 749 560 693 q 361 806 442 806 q 236 766 281 806 q 192 656 192 726 q 311 514 192 561 l 439 463 q 590 367 544 419 q 635 233 635 315 q 558 56 635 125 q 372 -14 481 -14 q 223 6 290 -14 q 117 25 156 25 q 72 18 79 25 q 78 147 78 47 q 67 282 78 246 m 126 1185 q 139 1196 126 1196 q 178 1179 151 1196 l 343 1076 l 508 1179 q 547 1196 535 1196 q 560 1185 560 1196 q 545 1167 560 1179 q 502 1130 531 1154 q 450 1081 474 1106 l 383 1014 q 343 979 349 979 q 303 1014 338 979 l 236 1081 q 184 1130 213 1106 q 141 1167 156 1154 q 126 1185 126 1179 z "},"š":{"ha":571,"x_min":61,"x_max":525,"o":"m 61 14 l 68 197 l 104 200 q 163 74 104 124 q 306 24 222 24 q 392 52 361 24 q 422 124 422 81 q 400 193 422 168 q 325 233 378 218 l 192 271 q 104 327 136 288 q 72 434 72 367 q 129 549 72 501 q 285 597 186 597 q 381 582 322 597 l 419 572 q 453 567 435 567 q 490 578 472 567 l 482 419 l 451 419 q 408 517 451 475 q 300 560 364 560 q 206 532 236 560 q 176 461 176 504 q 263 369 176 393 l 396 332 q 496 274 467 313 q 525 175 525 236 q 461 35 525 85 q 294 -14 397 -14 q 186 4 249 -14 l 139 17 q 96 22 118 22 q 61 14 74 22 m 68 939 q 81 950 68 950 q 119 933 93 950 l 285 831 l 450 933 q 489 950 476 950 q 501 939 501 950 q 487 921 501 933 q 444 884 472 908 q 392 835 415 860 l 325 768 q 285 733 290 733 q 244 768 279 733 l 178 835 q 126 884 154 860 q 83 921 97 908 q 68 939 68 933 z "},"Ÿ":{"ha":704,"x_min":-7,"x_max":718,"o":"m 31 790 l -7 788 l -7 829 l 300 829 l 300 788 l 226 790 q 210 780 213 792 q 217 757 208 768 l 407 440 l 589 763 q 579 790 603 790 l 507 788 l 507 829 l 718 829 l 718 788 l 678 790 l 676 790 q 638 761 654 790 l 435 400 l 435 67 q 463 38 435 38 l 529 40 l 529 0 l 211 0 l 211 40 l 279 38 q 306 68 306 38 l 306 365 l 65 764 q 32 790 51 790 l 31 790 m 208 987 q 198 996 208 987 q 188 1035 188 1006 q 209 1083 188 1064 q 262 1103 231 1103 q 315 1083 293 1103 q 338 1035 338 1064 q 317 987 338 1006 q 263 968 296 968 q 208 987 229 968 m 479 987 q 469 996 479 987 q 458 1035 458 1006 q 480 1083 458 1064 q 533 1103 501 1103 q 586 1083 564 1103 q 608 1035 608 1064 q 588 987 608 1006 q 533 968 567 968 q 479 987 500 968 z "},"Ž":{"ha":711,"x_min":47,"x_max":683,"o":"m 515 0 l 47 0 l 47 38 l 492 790 l 282 790 q 134 748 182 790 q 86 615 86 706 l 49 615 l 49 833 l 65 833 l 106 831 l 156 831 q 200 829 174 829 l 644 829 l 644 796 l 196 38 l 438 38 q 590 90 533 38 q 646 232 646 142 l 683 232 l 672 -6 q 515 0 656 0 m 139 1185 q 151 1196 139 1196 q 190 1179 164 1196 l 356 1076 l 521 1179 q 560 1196 547 1196 q 572 1185 572 1196 q 558 1167 572 1179 q 515 1130 543 1154 q 463 1081 486 1106 l 397 1014 q 356 979 360 979 q 314 1014 351 979 l 249 1081 q 197 1130 225 1106 q 153 1167 168 1154 q 139 1185 139 1179 z "},"ž":{"ha":613,"x_min":47,"x_max":553,"o":"m 192 0 l 47 -3 l 47 25 l 393 549 l 257 549 q 92 389 117 549 l 63 389 l 75 586 l 94 586 q 208 583 153 583 l 539 583 l 539 557 l 199 35 l 344 35 q 524 193 524 35 l 553 193 l 553 0 l 192 0 m 89 939 q 101 950 89 950 q 140 933 114 950 l 306 831 l 471 933 q 510 950 497 950 q 522 939 522 950 q 508 921 522 933 q 465 884 493 908 q 413 835 436 860 l 347 768 q 306 733 310 733 q 264 768 301 733 l 199 835 q 147 884 175 860 q 103 921 118 908 q 89 939 89 933 z "},"ƒ":{"ha":425,"x_min":-165,"x_max":633,"o":"m -51 -261 q -83 -261 -51 -261 q -140 -253 -114 -261 q -165 -223 -165 -246 q -150 -180 -165 -200 q -118 -160 -135 -160 q -92 -176 -101 -160 q -72 -208 -83 -192 q -31 -225 -60 -225 q 19 -201 -3 -225 q 68 -118 40 -178 q 156 256 96 -58 l 213 540 l 82 540 l 119 583 l 222 583 l 249 681 q 325 833 269 763 q 401 897 354 872 q 504 921 447 921 q 633 869 633 921 q 589 817 633 817 q 556 827 567 817 q 544 850 546 838 q 532 873 543 863 q 493 883 521 883 q 436 846 465 883 q 389 754 407 808 q 349 583 356 646 l 486 583 l 486 563 l 446 540 l 340 540 l 253 121 q 156 -128 224 -15 q 65 -224 118 -187 q -51 -261 11 -261 z "},"ˆ":{"ha":558,"x_min":68,"x_max":501,"o":"m 68 675 q 83 693 68 681 q 126 730 97 706 q 178 779 154 754 l 244 846 q 285 881 279 881 q 325 846 290 881 l 392 779 q 444 730 415 754 q 487 693 472 706 q 501 675 501 681 q 489 664 501 664 q 450 681 476 664 l 285 783 l 119 681 q 81 664 93 664 q 68 675 68 664 z "},"˜":{"ha":556,"x_min":79,"x_max":476,"o":"m 107 729 l 79 729 q 105 818 79 781 q 165 856 131 856 q 288 826 199 856 q 399 796 376 796 q 435 813 422 796 q 449 854 449 829 l 476 854 q 451 765 476 803 q 390 728 425 728 q 268 758 356 728 q 157 788 181 788 q 120 771 133 788 q 107 729 107 754 z "},"–":{"ha":663,"x_min":25,"x_max":638,"o":"m 638 265 l 25 265 l 25 319 l 638 319 l 638 265 z "},"—":{"ha":1103,"x_min":0,"x_max":1103,"o":"m 1103 265 l 0 265 l 0 319 l 1103 319 l 1103 265 z "},"‘":{"ha":306,"x_min":64,"x_max":243,"o":"m 64 663 q 111 794 64 732 q 217 896 158 856 l 243 881 q 177 800 207 847 q 147 725 147 753 q 155 689 147 697 q 178 681 163 681 l 197 681 q 242 621 242 681 q 217 569 242 592 q 161 547 193 547 q 64 663 64 547 z "},"’":{"ha":306,"x_min":89,"x_max":268,"o":"m 115 526 l 89 542 q 155 622 125 575 q 185 701 185 669 q 135 742 185 742 q 90 801 90 742 q 115 853 90 831 q 171 875 139 875 q 268 760 268 875 q 221 628 268 690 q 115 526 174 567 z "},"‚":{"ha":367,"x_min":142,"x_max":321,"o":"m 168 -222 l 142 -207 q 208 -126 178 -174 q 238 -47 238 -79 q 188 -7 238 -7 q 143 53 143 -7 q 167 104 143 82 q 224 126 192 126 q 321 11 321 126 q 274 -120 321 -58 q 168 -222 226 -182 z "},"“":{"ha":536,"x_min":64,"x_max":474,"o":"m 64 663 q 111 794 64 732 q 217 896 158 856 l 243 881 q 177 800 207 847 q 147 725 147 753 q 155 689 147 697 q 178 681 163 681 l 197 681 q 242 621 242 681 q 217 569 242 592 q 161 547 193 547 q 64 663 64 547 m 294 663 q 342 794 294 732 q 447 896 389 856 l 474 881 q 408 800 438 847 q 378 725 378 753 q 385 689 378 697 q 408 681 393 681 l 428 681 q 472 621 472 681 q 448 569 472 592 q 392 547 424 547 q 294 663 294 547 z "},"”":{"ha":536,"x_min":83,"x_max":493,"o":"m 110 526 l 83 542 q 149 622 119 575 q 179 701 179 669 q 129 742 179 742 q 85 801 85 742 q 109 853 85 831 q 165 875 133 875 q 263 760 263 875 q 215 628 263 690 q 110 526 168 567 m 340 526 l 314 542 q 380 622 350 575 q 410 701 410 669 q 360 742 410 742 q 315 801 315 742 q 340 853 315 831 q 396 875 364 875 q 493 760 493 875 q 446 628 493 690 q 340 526 399 567 z "},"„":{"ha":642,"x_min":142,"x_max":571,"o":"m 168 -222 l 142 -207 q 208 -126 178 -174 q 238 -47 238 -79 q 188 -7 238 -7 q 143 53 143 -7 q 167 104 143 82 q 224 126 192 126 q 321 11 321 126 q 274 -120 321 -58 q 168 -222 226 -182 m 418 -222 l 392 -207 q 458 -126 428 -174 q 488 -47 488 -79 q 438 -7 488 -7 q 393 53 393 -7 q 417 104 393 82 q 474 126 442 126 q 571 11 571 126 q 524 -120 571 -58 q 418 -222 476 -182 z "},"†":{"ha":733,"x_min":49,"x_max":671,"o":"m 283 542 l 189 551 q 143 524 164 551 q 104 497 122 497 q 49 567 49 497 q 73 616 49 596 q 126 636 97 636 q 172 628 156 636 l 208 607 q 335 578 258 578 q 318 648 318 628 q 321 688 318 668 l 326 715 q 335 763 335 751 q 314 797 335 775 q 293 839 293 819 q 313 874 293 858 q 360 889 332 889 q 407 874 388 889 q 426 839 426 858 q 406 797 426 819 q 385 763 385 775 q 393 715 385 751 l 399 688 q 401 648 401 668 q 385 578 401 628 q 511 607 461 578 l 547 628 q 593 636 564 636 q 647 616 622 636 q 671 567 671 596 q 615 497 671 497 q 576 524 596 497 q 531 551 556 551 q 436 542 531 551 q 379 554 406 542 q 404 467 379 503 l 422 442 q 429 420 429 431 q 422 349 429 410 q 412 203 414 288 q 408 61 410 118 q 400 -68 406 4 q 385 -174 394 -140 q 360 -208 375 -208 q 335 -174 344 -208 q 319 -68 325 -140 q 308 217 311 44 q 298 349 306 288 q 290 420 290 410 q 297 442 290 431 l 315 467 q 340 554 340 503 q 283 542 314 542 z "},"‡":{"ha":733,"x_min":49,"x_max":671,"o":"m 436 135 l 531 125 q 576 152 556 125 q 615 179 596 179 q 671 110 671 179 q 647 60 671 81 q 592 40 622 40 q 547 50 563 40 l 511 69 q 385 99 461 99 q 401 28 401 49 q 399 -11 401 8 l 393 -39 q 385 -86 385 -75 q 406 -121 385 -97 q 426 -163 426 -144 q 407 -197 426 -182 q 360 -212 388 -212 q 313 -197 332 -212 q 293 -163 293 -182 q 314 -121 293 -144 q 335 -86 335 -97 q 326 -39 335 -75 l 321 -11 q 318 28 318 8 q 335 99 318 49 q 208 69 258 99 l 172 50 q 127 40 157 40 q 73 60 97 40 q 49 110 49 81 q 104 179 49 179 q 143 152 122 179 q 189 125 164 125 l 283 135 q 340 122 314 135 q 315 208 340 175 l 297 233 q 290 270 290 244 q 311 331 290 296 l 315 339 l 303 364 q 290 411 290 392 q 297 442 290 431 l 315 467 q 340 554 340 503 q 283 542 314 542 l 189 551 q 143 524 164 551 q 104 497 122 497 q 49 567 49 497 q 73 616 49 596 q 126 636 97 636 q 172 628 156 636 l 208 607 q 335 578 258 578 q 318 648 318 628 q 321 688 318 668 l 326 715 q 335 763 335 751 q 314 797 335 775 q 293 839 293 819 q 313 874 293 858 q 360 889 332 889 q 407 874 388 889 q 426 839 426 858 q 406 797 426 819 q 385 763 385 775 q 393 715 385 751 l 399 688 q 401 648 401 668 q 385 578 401 628 q 511 607 461 578 l 547 628 q 593 636 564 636 q 647 616 622 636 q 671 567 671 596 q 615 497 671 497 q 576 524 596 497 q 531 551 556 551 l 436 542 q 379 554 406 542 q 404 467 379 503 l 422 442 q 429 411 429 431 q 417 364 429 392 l 404 339 l 408 331 q 429 270 429 296 q 422 233 429 244 l 404 208 q 379 122 379 175 q 436 135 406 135 z "},"•":{"ha":651,"x_min":146,"x_max":503,"o":"m 196 227 q 171 250 196 227 q 146 343 146 272 q 197 459 146 414 q 325 504 249 504 q 452 459 401 504 q 503 343 503 414 q 451 227 503 272 q 323 182 400 182 q 196 227 246 182 z "},"…":{"ha":957,"x_min":83,"x_max":874,"o":"m 109 8 q 96 18 109 8 q 83 65 83 29 q 109 124 83 101 q 174 146 135 146 q 238 124 213 146 q 264 65 264 101 q 238 8 264 29 q 174 -14 213 -14 q 109 8 135 -14 m 415 8 q 402 18 415 8 q 389 65 389 29 q 415 124 389 101 q 479 146 440 146 q 544 124 518 146 q 569 65 569 101 q 544 8 569 29 q 479 -14 518 -14 q 415 8 440 -14 m 719 8 q 706 18 719 8 q 693 65 693 29 q 719 124 693 101 q 783 146 744 146 q 848 124 822 146 q 874 65 874 101 q 848 8 874 29 q 783 -14 822 -14 q 719 8 744 -14 z "},"‰":{"ha":1149,"x_min":0,"x_max":1132,"o":"m 46 -97 l 0 -65 l 646 840 l 693 813 l 46 -97 m 210 550 q 171 550 210 550 q 87 601 132 550 q 42 748 42 653 q 88 894 42 843 q 212 944 135 944 q 335 893 289 944 q 382 747 382 842 q 335 601 382 651 q 210 550 289 550 m 212 919 q 171 919 212 919 q 131 748 131 919 q 212 576 131 576 q 293 748 293 576 q 212 919 293 919 m 565 -94 q 525 -94 565 -94 q 441 -43 486 -94 q 396 103 396 8 q 442 249 396 199 q 566 300 489 300 q 690 249 643 300 q 736 102 736 197 q 690 -44 736 7 q 565 -94 643 -94 m 566 275 q 525 275 566 275 q 485 103 485 275 q 566 -68 485 -68 q 647 103 647 -68 q 566 275 647 275 m 960 -94 q 921 -94 960 -94 q 837 -43 882 -94 q 792 103 792 8 q 838 249 792 199 q 962 300 885 300 q 1085 249 1039 300 q 1132 102 1132 197 q 1085 -44 1132 7 q 960 -94 1039 -94 m 962 275 q 921 275 962 275 q 881 103 881 275 q 962 -68 881 -68 q 1043 103 1043 -68 q 962 275 1043 275 z "},"‹":{"ha":314,"x_min":36,"x_max":293,"o":"m 243 22 l 36 260 l 243 497 l 293 497 l 157 260 l 293 22 l 243 22 z "},"›":{"ha":313,"x_min":21,"x_max":278,"o":"m 71 22 l 21 22 l 157 260 l 21 497 l 71 497 l 278 260 l 71 22 z "},"€":{"ha":647,"x_min":3,"x_max":640,"o":"m 628 631 q 631 601 628 618 l 606 601 q 531 749 589 689 q 397 808 472 808 q 267 731 321 808 q 199 517 214 654 l 532 517 l 518 460 l 193 460 q 192 442 192 453 l 192 392 q 194 358 192 369 l 532 358 l 518 301 l 199 301 q 272 97 217 169 q 404 24 326 24 q 539 83 482 24 q 610 232 596 142 l 640 232 q 636 169 636 182 l 633 138 l 633 114 q 638 49 633 75 l 631 49 q 556 28 608 49 l 517 11 q 462 -6 499 3 q 400 -14 425 -14 q 192 69 275 -14 q 89 301 110 153 l 3 301 l 17 358 l 83 358 q 82 378 82 365 l 82 442 q 83 460 82 453 l 3 460 l 17 517 l 88 517 q 192 758 108 674 q 406 843 275 843 q 480 835 451 843 q 579 792 508 826 q 631 783 601 783 q 626 693 626 729 q 628 650 626 657 l 628 631 z "},"™":{"ha":1053,"x_min":53,"x_max":1000,"o":"m 79 682 l 53 682 l 53 782 l 413 782 l 413 682 l 385 682 q 365 742 385 728 q 289 756 344 756 l 268 756 l 268 418 q 329 385 268 385 l 329 364 l 135 364 l 135 385 q 196 411 196 385 l 196 756 l 131 754 q 86 728 93 751 l 79 682 m 615 364 l 467 364 l 467 385 q 526 413 526 385 l 526 744 q 483 761 526 761 l 483 782 l 608 782 l 738 474 l 863 782 l 996 782 l 996 761 l 964 761 q 947 740 951 761 l 947 424 q 960 392 947 400 q 1000 385 972 385 l 1000 364 l 826 364 l 826 385 q 867 392 856 385 q 879 424 879 400 l 879 738 l 871 738 l 724 364 l 713 364 l 565 738 l 554 738 l 554 418 q 615 385 554 385 l 615 364 z "},"":{"ha":583,"x_min":0,"x_max":583,"o":"m 0 0 l 0 583 l 583 583 l 583 0 l 0 0 z "}}}
